<?xml version="1.0" encoding="utf-8"?>
<!-- Generator: Adobe Illustrator 22.1.0, SVG Export Plug-In . SVG Version: 6.00 Build 0)  -->
<svg version="1.1" id="Layer_1" xmlns="http://www.w3.org/2000/svg" xmlns:xlink="http://www.w3.org/1999/xlink" x="0px" y="0px"
	 viewBox="0 0 278 206" style="enable-background:new 0 0 278 206;" xml:space="preserve">
<style type="text/css">
	.st0{fill:#FFFFFF;}
	.st1{enable-background:new    ;}
	.st2{fill:none;stroke:#FFFFFF;stroke-width:1.8893;stroke-miterlimit:10;}
</style>
<g>
	<path class="st0" d="M162.4,16.2c0.8,1.6,1.5,3.3,2.4,4.9c1.7,3.3,4.4,5.7,7.5,7.7c6.6,4.3,13.1,8.8,19.5,13.3c2.9,2,5.2,4.7,6.4,8
		c1.4,3.6,0.7,7.2-0.3,10.8c-0.6,1.9-1.3,3.7-2,5.5c-0.1,0.3-0.3,0.5-0.5,0.7c-0.2-0.2-0.4-0.4-0.5-0.7c-0.8-2.3-1.6-4.6-2.5-6.9
		c-1.1-3-3.1-5.4-5.9-7.1c-6.2-4-12.4-8-18.5-12.2c-2.2-1.5-4.3-3.5-6.1-5.5c-2.9-3.1-3.9-6.9-2.9-11c0.6-2.6,1.6-5,2.4-7.5
		c0.1-0.2,0.3-0.4,0.5-0.7c0.2,0.2,0.4,0.4,0.6,0.6C162.5,16.2,162.5,16.2,162.4,16.2z"/>
	<path class="st0" d="M144.6,41.5c1,0.9,1.9,1.7,2.7,2.4c2.3,1.9,5,3,8,3.5c6,0.9,12,2,17.9,3c1.5,0.3,3,0.8,4.5,1.4
		c3.4,1.3,5.8,3.8,6.6,7.3c0.6,2.5,0.7,5.1,1.1,7.7c0,0.2-0.1,0.5-0.2,0.8c-0.2-0.1-0.4-0.2-0.6-0.4c-1.3-1.4-2.6-2.7-4-4.1
		c-1.8-1.8-4-2.8-6.5-3.2c-5.5-0.9-10.9-1.6-16.4-2.6c-2.6-0.5-5.1-1.3-7.5-2.3c-2.8-1.1-4.6-3.3-5.3-6.1c-0.5-2.2-0.7-4.5-0.9-6.8
		c0-0.3,0.1-0.5,0.2-0.8C144.4,41.3,144.6,41.5,144.6,41.5z"/>
	<path class="st0" d="M204,159.5c0,7.3,5.9,13.3,13.3,13.3c7.3,0,13.3-5.9,13.3-13.3c0-2.1-0.5-4-1.3-5.8c-2.1-4.4-6.7-7.5-12-7.5
		C210,146.3,204,152,204,159.5L204,159.5z M210,161c0-0.5,0.1-1,0.2-1.5c0.6-2.5,2.9-4.3,5.6-4.3c2.7,0,4.9,1.8,5.6,4.3
		c0.1,0.5,0.2,1,0.2,1.5c0,3.2-2.6,5.8-5.8,5.8S210,164,210,161z"/>
	<path class="st0" d="M117.9,131.5c3.9,2.5,8.3,3.8,12.9,3.8c4.4,0,8.8,0,13.2,0c1,0,1.6,0.3,2,1.2c3.6,6.5,7.8,12.4,13.2,17.5
		c2.2-5.8,7.8-9.9,14.4-9.9c8.5,0,15.4,6.9,15.5,15.4c4.1,0,8.1,0,12.2,0c0-8.8,7.1-15.9,15.9-15.9c6.3,0,11.8,3.7,14.3,9
		c4-4,7.3-8.5,10.2-13.4c7.4-12.4,11.7-25.9,13.4-40.2c0.6-5.1,0.9-10.3,1-15.5c0.2-5.9-4-10.1-10-10.1c-15.9,0-31.8,0-47.6,0
		c-1.3,0-2.6,0-4,0c-17.1,0-34.2,0-51.3,0c-5.2,0-9,3-10,7.8c-0.2,1.2-0.2,2.5-0.2,3.8c0.1,1.1-0.2,1.5-1.4,1.4
		c-4.4-0.1-8.5,0.8-12.4,2.9C102.9,98,102.1,121.5,117.9,131.5z M116.7,108.7c1-6.8,6.9-13.2,16.4-12.4c0.4,0,0.9,0.8,0.9,1.3
		c0.5,2.9,0.7,5.9,1.5,8.8c1.5,5.9,3.3,11.8,5,17.6c0.3,1,0.2,1.3-0.9,1.2c-1.6-0.1-3.1,0-4.7,0l0,0c-1.5,0-2.9,0-4.4,0
		C122,125,115.5,117,116.7,108.7z"/>
	<path class="st0" d="M160.9,159.5c0,7.1,5.7,12.8,12.8,12.8s12.8-5.7,12.8-12.8l0,0c0-7.1-5.8-12.8-12.8-12.8
		c-5.4,0-10.1,3.4-11.9,8.2C161.2,156.3,160.9,158,160.9,159.5z M166.2,159.3c0-0.3,0-0.5,0.1-0.8c0.4-2.9,2.9-5.2,5.9-5.2
		c3.3,0,6,2.7,6,6v0.1c-0.1,3.2-2.7,5.9-6,5.9S166.2,162.5,166.2,159.3z"/>
	<g>
		<path class="st0" d="M97.8,122.5c-6.9,0.3-13.8,0.6-20.7,0.9c-8.5,0.4-17.1,0.7-25.6,1.1c-3.7,0.2-7.4,0.3-11.1,0.5
			c-0.4,0-0.8,0.2-1.2,0.2c0,0.1,0,0.2,0,0.4c1,0.2,2,0.6,3.1,0.6c6.3,0.3,12.5,0.5,18.7,0.8c6.8,0.3,13.5,0.7,20.3,1
			c4.3,0.2,8.7,0.4,13,0.6c2.6,0.1,5.2,0.3,7.8,0.4c0.1,0,0.1,0,0.2,0c-1.6-2-3-4.2-4.2-6.6C98,122.5,97.9,122.5,97.8,122.5z"/>
		<path class="st0" d="M111.7,76c-13,0.4-25.9,0.8-38.9,1.2c-8.7,0.3-17.5,0.6-26.2,0.9c-10.3,0.3-20.6,0.6-30.9,1
			c-1.3,0-2.4,0.2-3.7,0.3c0,0.1,0,0.3,0,0.4c0.3,0.1,0.5,0.2,0.8,0.2c1.3,0.1,2.7,0.3,4.1,0.3c4,0.1,8,0.1,12,0.2
			c6.9,0.2,13.8,0.5,20.7,0.7c3,0.1,5.9,0.1,8.9,0.2c6.2,0.2,12.3,0.5,18.5,0.7c4.5,0.1,9,0.2,13.5,0.4c5,0.2,10.1,0.4,15.1,0.6
			C107.4,80.5,109.4,78.2,111.7,76z"/>
		<path class="st0" d="M85.8,98.5c-9.9,0.1-19.8,0.3-29.7,0.4c-6.3,0.1-12.5,0.2-18.7,0.3c-4,0.1-8.1,0.1-12.1,0.2
			c-0.8,0-1.7,0.2-2.5,0.3c0,0.1,0,0.2,0,0.2c0.2,0.1,0.3,0.2,0.4,0.2c1.5,0.2,3,0.5,4.6,0.6c4,0.3,8,0.5,12,0.7
			c3.6,0.2,7.3,0.4,10.9,0.7c2,0.1,3.9,0.2,5.9,0.3c5.3,0.4,10.5,0.8,15.7,1.2c6.4,0.4,12.6,0.8,19,1.1c2.2,0.1,4.3,0.2,6.5,0.3
			c0.1-2.3,0.4-4.6,0.9-6.8C94.3,98.2,90,98.2,85.8,98.5z"/>
		<path class="st0" d="M99.1,146c-8.9,0.5-17.7,1-26.6,1.5c-3.1,0.2-6.2,0.2-9.2,0.4c-0.6,0-1.3,0.2-1.8,0.3c0,0.1,0,0.3,0,0.4
			c0.8,0.2,1.6,0.4,2.3,0.4c1.7,0.1,3.3,0.2,5,0.3c5.3,0.2,10.5,0.2,15.7,0.4c11.5,0.4,22.8,0.9,34.3,1.4c6.4,0.3,13,0.5,19.4,0.7
			c0.3,0,0.6,0,0.8-0.1c-0.1-0.1-0.1-0.1-0.2-0.2c-7.4-0.8-14.4-3-20.5-6.5C112,145.5,105.6,145.8,99.1,146z"/>
	</g>
</g>
</svg>
