<?xml version="1.0" encoding="utf-8"?>
<!-- Generator: Adobe Illustrator 22.1.0, SVG Export Plug-In . SVG Version: 6.00 Build 0)  -->
<svg version="1.1" id="Layer_1" xmlns="http://www.w3.org/2000/svg" xmlns:xlink="http://www.w3.org/1999/xlink" x="0px" y="0px"
	 viewBox="0 0 706.1 168.9" style="enable-background:new 0 0 706.1 168.9;" xml:space="preserve">
<style type="text/css">
	.st0{fill:#A0CD4D;}
	.st1{fill:none;}
	.st2{fill:#3F2A0F;}
	.st3{enable-background:new    ;}
	.st4{fill:#F1682E;}
	.st5{fill:none;stroke:#3E2912;stroke-width:1.8893;stroke-miterlimit:10;}
</style>
<g>
	<path class="st0" d="M172.7,6.2c0.8,1.6,1.5,3.3,2.4,4.9c1.7,3.3,4.4,5.7,7.5,7.7c6.6,4.3,13.1,8.8,19.5,13.3c2.9,2,5.2,4.7,6.4,8
		c1.4,3.6,0.7,7.2-0.3,10.8c-0.6,1.9-1.3,3.7-2,5.5c-0.1,0.3-0.3,0.5-0.5,0.7c-0.2-0.2-0.4-0.4-0.5-0.7c-0.8-2.3-1.6-4.6-2.5-6.9
		c-1.1-3-3.1-5.4-5.9-7.1c-6.2-4-12.4-8-18.5-12.2c-2.2-1.5-4.3-3.5-6.1-5.5c-2.9-3.1-3.9-6.9-2.9-11c0.6-2.6,1.6-5,2.4-7.5
		c0.1-0.2,0.3-0.4,0.5-0.7c0.2,0.2,0.4,0.4,0.6,0.6C172.8,6.2,172.8,6.2,172.7,6.2z"/>
	<path class="st0" d="M154.9,31.5c1,0.9,1.9,1.7,2.7,2.4c2.3,1.9,5,3,8,3.5c6,0.9,12,2,17.9,3c1.5,0.3,3,0.8,4.5,1.4
		c3.4,1.3,5.8,3.8,6.6,7.3c0.6,2.5,0.7,5.1,1.1,7.7c0,0.2-0.1,0.5-0.2,0.8c-0.2-0.1-0.4-0.2-0.6-0.4c-1.3-1.4-2.6-2.7-4-4.1
		c-1.8-1.8-4-2.8-6.5-3.2c-5.5-0.9-10.9-1.6-16.4-2.6c-2.6-0.5-5.1-1.3-7.5-2.3c-2.8-1.1-4.6-3.3-5.3-6.1c-0.5-2.2-0.7-4.5-0.9-6.8
		c0-0.3,0.1-0.5,0.2-0.8C154.7,31.4,154.9,31.5,154.9,31.5z"/>
	<path class="st1" d="M143.4,86.4c0.4,0,0.9,0.8,0.9,1.3c0.5,2.9,0.7,5.9,1.5,8.8c1.5,5.9,3.3,11.8,5,17.6c0.3,1,0.2,1.3-0.9,1.2
		c-1.6-0.1-3.1,0-4.7,0l0,0c-1.5,0-2.9,0-4.4,0c-8.5-0.2-15-8.1-13.8-16.5C128,92.1,133.9,85.6,143.4,86.4z"/>
	<path class="st1" d="M225.8,158.2c-3.8,0-7-3.1-7-7c0-0.6,0.1-1.2,0.2-1.8c4.4,0,8.8,0,13.3,0c0.1,0,0.1,0,0.2,0
		c0.2,0.6,0.2,1.2,0.2,1.8C232.8,155.1,229.6,158.2,225.8,158.2z"/>
	<path class="st0" d="M214.3,149.6c0,7.3,5.9,13.3,13.3,13.3c7.3,0,13.3-5.9,13.3-13.3c0-2.1-0.5-4-1.3-5.8c-2.1-4.4-6.7-7.5-12-7.5
		C220.3,136.3,214.3,142.2,214.3,149.6L214.3,149.6z M220.3,151c0-0.5,0.1-1,0.2-1.5c0.6-2.5,2.9-4.3,5.6-4.3c2.7,0,4.9,1.8,5.6,4.3
		c0.1,0.5,0.2,1,0.2,1.5c0,3.2-2.6,5.8-5.8,5.8S220.3,154.2,220.3,151z"/>
	<path class="st1" d="M143.4,86.4c0.4,0,0.9,0.8,0.9,1.3c0.5,2.9,0.7,5.9,1.5,8.8c1.5,5.9,3.3,11.8,5,17.6c0.3,1,0.2,1.3-0.9,1.2
		c-1.6-0.1-3.1,0-4.7,0l0,0c-1.5,0-2.9,0-4.4,0c-8.5-0.2-15-8.1-13.8-16.5C128,92.1,133.9,85.6,143.4,86.4z"/>
	<path class="st1" d="M182.2,156.6c-4,0-7.2-3.2-7.2-7.2c0-0.3,0-0.6,0.1-1c1.4,0.8,2.8,1.2,4.5,1.2c3.3,0,6.6,0,9.9,0
		C189.3,153.5,186.1,156.6,182.2,156.6z"/>
	<path class="st2" d="M128.3,121.5c3.9,2.5,8.3,3.8,12.9,3.8c4.4,0,8.8,0,13.2,0c1,0,1.6,0.3,2,1.2c3.6,6.5,7.8,12.4,13.2,17.5
		c2.2-5.8,7.8-9.9,14.4-9.9c8.5,0,15.4,6.9,15.5,15.4c4.1,0,8.1,0,12.2,0c0-8.8,7.1-15.9,15.9-15.9c6.3,0,11.8,3.7,14.3,9
		c4-4,7.3-8.5,10.2-13.4c7.4-12.4,11.7-25.9,13.4-40.2c0.6-5.1,0.9-10.3,1-15.5c0.2-5.9-4-10.1-10-10.1c-15.9,0-31.8,0-47.6,0
		c-1.3,0-2.6,0-4,0c-17.1,0-34.2,0-51.3,0c-5.2,0-9,3-10,7.8c-0.2,1.2-0.2,2.5-0.2,3.8c0.1,1.1-0.2,1.5-1.4,1.4
		c-4.4-0.1-8.5,0.8-12.4,2.9C113.3,88.2,112.4,111.4,128.3,121.5z M127,98.8c1-6.8,6.9-13.2,16.4-12.4c0.4,0,0.9,0.8,0.9,1.3
		c0.5,2.9,0.7,5.9,1.5,8.8c1.5,5.9,3.3,11.8,5,17.6c0.3,1,0.2,1.3-0.9,1.2c-1.6-0.1-3.1,0-4.7,0l0,0c-1.5,0-2.9,0-4.4,0
		C132.3,115.1,125.8,107.2,127,98.8z"/>
	<path class="st0" d="M171.2,149.6c0,7.1,5.7,12.8,12.8,12.8s12.8-5.7,12.8-12.8l0,0c0-7.1-5.8-12.8-12.8-12.8
		c-5.4,0-10.1,3.4-11.9,8.2C171.5,146.4,171.2,148,171.2,149.6z M176.5,149.4c0-0.3,0-0.5,0.1-0.8c0.4-2.9,2.9-5.2,5.9-5.2
		c3.3,0,6,2.7,6,6v0.1c-0.1,3.2-2.7,5.9-6,5.9S176.5,152.7,176.5,149.4z"/>
	<g>
		<path class="st0" d="M112,112.5c-8.3,0.3-16.5,0.6-24.8,0.9c-10.2,0.4-20.4,0.7-30.6,1.1c-4.4,0.2-8.9,0.3-13.3,0.5
			c-0.5,0-1,0.2-1.4,0.2c0,0.1,0,0.2,0,0.4c1.2,0.2,2.4,0.6,3.7,0.6c7.5,0.3,14.9,0.5,22.4,0.8c8.1,0.3,16.2,0.7,24.3,1
			c5.2,0.2,10.4,0.4,15.6,0.6c3.1,0.1,6.2,0.3,9.3,0.4c0.1,0,0.1,0,0.2,0c-1.9-2-3.6-4.2-5-6.6C112.2,112.5,112.1,112.5,112,112.5z"
			/>
		<path class="st0" d="M128.6,66.2c-15.5,0.4-31,0.8-46.5,1.2c-10.4,0.3-20.9,0.6-31.3,0.9c-12.3,0.3-24.6,0.6-37,1
			c-1.5,0-2.9,0.2-4.4,0.3c0,0.1,0,0.3,0,0.4c0.3,0.1,0.6,0.2,1,0.2c1.6,0.1,3.2,0.3,4.9,0.3c4.8,0.1,9.6,0.1,14.4,0.2
			c8.2,0.2,16.5,0.5,24.7,0.7c3.6,0.1,7.1,0.1,10.7,0.2c7.4,0.2,14.7,0.5,22.1,0.7c5.4,0.1,10.8,0.2,16.2,0.4
			c6,0.2,12.1,0.4,18.1,0.6C123.6,70.6,125.9,68.3,128.6,66.2z"/>
		<path class="st0" d="M97.6,88.5c-11.8,0.1-23.7,0.3-35.5,0.4c-7.5,0.1-14.9,0.2-22.4,0.3c-4.8,0.1-9.7,0.1-14.5,0.2
			c-1,0-2,0.2-3,0.3c0,0.1,0,0.2,0,0.2c0.2,0.1,0.3,0.2,0.5,0.2c1.8,0.2,3.6,0.5,5.5,0.6c4.8,0.3,9.6,0.5,14.4,0.7
			c4.3,0.2,8.7,0.4,13,0.7c2.4,0.1,4.7,0.2,7.1,0.3c6.3,0.4,12.5,0.8,18.8,1.2c7.6,0.4,15.1,0.8,22.7,1.1c2.6,0.1,5.2,0.2,7.8,0.3
			c0.1-2.3,0.5-4.6,1.1-6.8C107.8,88.4,102.7,88.4,97.6,88.5z"/>
		<path class="st0" d="M113.6,136.2c-10.6,0.5-21.2,1-31.8,1.5c-3.7,0.2-7.4,0.2-11,0.4c-0.7,0-1.5,0.2-2.2,0.3c0,0.1,0,0.3,0,0.4
			c0.9,0.2,1.9,0.4,2.8,0.4c2,0.1,4,0.2,6,0.3c6.3,0.2,12.5,0.2,18.8,0.4c13.7,0.4,27.3,0.9,41,1.4c7.7,0.3,15.5,0.5,23.2,0.7
			c0.3,0,0.7,0,1-0.1c-0.1-0.1-0.1-0.1-0.2-0.2c-8.9-0.8-17.2-3-24.5-6.5C129,135.6,121.3,135.9,113.6,136.2z"/>
	</g>
</g>
<g class="st3">
	<path class="st4" d="M325.2,117.3h-5.4v-40h-23.5v40H291v-40h-8.1l3.2-5.5h4.9v-21h5.4v21h23.5v-21h5.4V117.3z"/>
	<path class="st4" d="M366.1,111.9c-4.2,4.4-9.3,6.6-15.3,6.6c-5.7,0-10.7-2.1-14.9-6.3c-4.2-4.2-6.3-9.1-6.3-14.9
		c0-5.9,2.1-10.9,6.3-15c4.2-4.1,9.1-6.2,14.9-6.2c5.9,0,11,2.2,15.3,6.6l5.9-5.5v40L366.1,111.9z M350.8,81.6
		c-4.4,0-8.2,1.5-11.2,4.6c-3,3-4.6,6.8-4.6,11.2c0,4.4,1.5,8.2,4.6,11.2s6.8,4.6,11.2,4.6c4.4,0,8.1-1.5,11.2-4.6
		c3.1-3.1,4.6-6.8,4.6-11.2c0-4.4-1.5-8.1-4.6-11.2C358.9,83.1,355.2,81.6,350.8,81.6z"/>
	<path class="st4" d="M377.8,117.3v-40l4.6,3.7c3.1-3.2,6.9-4.8,11.4-4.8s8.3,1.5,11.4,4.6c3.1,3.1,4.6,6.9,4.6,11.4v25.2h-5.4V92.2
		c0-3.1-1-5.6-3.1-7.6c-2.1-2-4.6-3-7.5-3s-5.4,1-7.5,3.1c-2.1,2.1-3.1,4.6-3.1,7.5v25.2H377.8z"/>
	<path class="st4" d="M435.3,76.2c6.3,0,11.5,2.3,15.8,7V50.7h5.4v66.6l-5.9-5.4c-4.2,4.4-9.3,6.6-15.3,6.6
		c-5.7,0-10.7-2.1-14.9-6.3c-4.2-4.2-6.3-9.1-6.3-14.9c0-5.9,2.1-10.9,6.3-15C424.6,78.3,429.5,76.2,435.3,76.2z M435.3,81.6
		c-4.4,0-8.2,1.5-11.2,4.6c-3,3-4.6,6.8-4.6,11.2c0,4.4,1.5,8.2,4.6,11.2s6.8,4.6,11.2,4.6c4.4,0,8.1-1.5,11.2-4.6
		c3.1-3.1,4.6-6.8,4.6-11.2c0-4.4-1.5-8.1-4.6-11.2C443.4,83.1,439.7,81.6,435.3,81.6z"/>
	<path class="st4" d="M464.7,135.9l4.2-3.1c2.1,3.1,5.1,4.7,9.1,4.7c3.3,0,5.9-1.1,7.9-3.2c2-2.2,3-4.7,3-7.6v-12.2
		c-3,2.7-6.5,4-10.6,4c-4.5,0-8.3-1.5-11.4-4.6c-3.1-3.1-4.6-6.9-4.6-11.4V77.3h5.4v25.2c0,2.9,1.1,5.4,3.2,7.5
		c2.1,2.1,4.6,3.1,7.4,3.1c3.1,0,5.6-1.1,7.6-3.2c2-2.1,3-4.6,3-7.4V77.3h5.4v49.3c0,4.5-1.6,8.3-4.7,11.5c-3.2,3.2-7,4.7-11.5,4.7
		C472.4,142.9,467.9,140.6,464.7,135.9z"/>
</g>
<g class="st3">
	<path class="st5" d="M532.2,74.7c3.5,2,6.3,4.7,8.4,8.2c2.2,3.5,3.2,7.4,3.2,11.7c0,4.1-1,7.9-3,11.4c-2,3.5-4.8,6.3-8.3,8.3
		c-3.5,2-7.3,3-11.4,3h-14.4v-40h-8.1l3.2-5.5h4.9v-21h17.7c3.7,0,6.8,1.3,9.4,3.9c2.6,2.6,3.9,5.7,3.9,9.4
		C537.7,68.6,535.9,72.1,532.2,74.7z M512.1,71.9h12.3c2.3,0,4.2-0.8,5.7-2.4c1.4-1.6,2.2-3.4,2.2-5.4c0-2.3-0.8-4.3-2.3-5.7
		c-1.5-1.5-3.4-2.2-5.5-2.2h-12.3V71.9z M512.1,77.3v34.7h9c5,0,9.1-1.7,12.4-5.2c3.3-3.5,4.9-7.5,4.9-12.1c0-3.3-0.8-6.3-2.4-8.9
		c-1.6-2.6-3.7-4.7-6.4-6.2c-2.7-1.5-5.5-2.3-8.5-2.3H512.1z"/>
	<path class="st5" d="M569.2,77.2l-2.4,4.8c-0.8-0.3-1.7-0.4-2.8-0.4c-3,0-5.5,1-7.4,3c-1.9,2-2.9,4.4-2.9,7.2v25.5h-5.4v-40
		l4.5,3.6c3-3.1,6.7-4.7,11.2-4.7C565.9,76.2,567.7,76.5,569.2,77.2z"/>
	<path class="st5" d="M607.2,104.7l4.7,2.6c-1.8,3.3-4.3,6-7.6,8.1s-7,3.1-11,3.1c-5.7,0-10.7-2.1-14.9-6.3
		c-4.2-4.2-6.3-9.1-6.3-14.9c0-5.9,2.1-10.9,6.3-15c4.2-4.1,9.1-6.2,14.9-6.2c3.7,0,7.1,0.9,10.3,2.7c3.2,1.8,5.7,4.1,7.5,7
		L583.8,110c2.7,2.1,5.9,3.1,9.5,3.1c3,0,5.7-0.8,8.2-2.3C603.9,109.4,605.8,107.3,607.2,104.7z M580.2,106.2l23.4-20.8
		c-2.9-2.5-6.4-3.8-10.3-3.8c-4.4,0-8.2,1.5-11.2,4.6c-3,3-4.6,6.8-4.6,11.2C577.5,100.5,578.4,103.5,580.2,106.2z"/>
	<path class="st5" d="M651.4,111.9c-4.2,4.4-9.3,6.6-15.3,6.6c-5.7,0-10.7-2.1-14.9-6.3c-4.2-4.2-6.3-9.1-6.3-14.9
		c0-5.9,2.1-10.9,6.3-15c4.2-4.1,9.1-6.2,14.9-6.2c5.9,0,11,2.2,15.3,6.6l5.9-5.5v40L651.4,111.9z M636.1,81.6
		c-4.4,0-8.2,1.5-11.2,4.6c-3,3-4.6,6.8-4.6,11.2c0,4.4,1.5,8.2,4.6,11.2s6.8,4.6,11.2,4.6c4.4,0,8.1-1.5,11.2-4.6
		c3.1-3.1,4.6-6.8,4.6-11.2c0-4.4-1.5-8.1-4.6-11.2C644.2,83.1,640.5,81.6,636.1,81.6z"/>
	<path class="st5" d="M689.1,117.3h-6.6l-14-20.1v20.1h-5.4V50.7h5.4v45.1L680,77.3h6.4l-11.8,19.2L689.1,117.3z"/>
</g>
<g class="st3">
	<path class="st2" d="M532.2,74.7c3.5,2,6.3,4.7,8.4,8.2c2.2,3.5,3.2,7.4,3.2,11.7c0,4.1-1,7.9-3,11.4c-2,3.5-4.8,6.3-8.3,8.3
		c-3.5,2-7.3,3-11.4,3h-14.4v-40h-8.1l3.2-5.5h4.9v-21h17.7c3.7,0,6.8,1.3,9.4,3.9c2.6,2.6,3.9,5.7,3.9,9.4
		C537.7,68.6,535.9,72.1,532.2,74.7z M512.1,71.9h12.3c2.3,0,4.2-0.8,5.7-2.4c1.4-1.6,2.2-3.4,2.2-5.4c0-2.3-0.8-4.3-2.3-5.7
		c-1.5-1.5-3.4-2.2-5.5-2.2h-12.3V71.9z M512.1,77.3v34.7h9c5,0,9.1-1.7,12.4-5.2c3.3-3.5,4.9-7.5,4.9-12.1c0-3.3-0.8-6.3-2.4-8.9
		c-1.6-2.6-3.7-4.7-6.4-6.2c-2.7-1.5-5.5-2.3-8.5-2.3H512.1z"/>
	<path class="st2" d="M569.2,77.2l-2.4,4.8c-0.8-0.3-1.7-0.4-2.8-0.4c-3,0-5.5,1-7.4,3c-1.9,2-2.9,4.4-2.9,7.2v25.5h-5.4v-40
		l4.5,3.6c3-3.1,6.7-4.7,11.2-4.7C565.9,76.2,567.7,76.5,569.2,77.2z"/>
	<path class="st2" d="M607.2,104.7l4.7,2.6c-1.8,3.3-4.3,6-7.6,8.1s-7,3.1-11,3.1c-5.7,0-10.7-2.1-14.9-6.3
		c-4.2-4.2-6.3-9.1-6.3-14.9c0-5.9,2.1-10.9,6.3-15c4.2-4.1,9.1-6.2,14.9-6.2c3.7,0,7.1,0.9,10.3,2.7c3.2,1.8,5.7,4.1,7.5,7
		L583.8,110c2.7,2.1,5.9,3.1,9.5,3.1c3,0,5.7-0.8,8.2-2.3C603.9,109.4,605.8,107.3,607.2,104.7z M580.2,106.2l23.4-20.8
		c-2.9-2.5-6.4-3.8-10.3-3.8c-4.4,0-8.2,1.5-11.2,4.6c-3,3-4.6,6.8-4.6,11.2C577.5,100.5,578.4,103.5,580.2,106.2z"/>
	<path class="st2" d="M651.4,111.9c-4.2,4.4-9.3,6.6-15.3,6.6c-5.7,0-10.7-2.1-14.9-6.3c-4.2-4.2-6.3-9.1-6.3-14.9
		c0-5.9,2.1-10.9,6.3-15c4.2-4.1,9.1-6.2,14.9-6.2c5.9,0,11,2.2,15.3,6.6l5.9-5.5v40L651.4,111.9z M636.1,81.6
		c-4.4,0-8.2,1.5-11.2,4.6c-3,3-4.6,6.8-4.6,11.2c0,4.4,1.5,8.2,4.6,11.2s6.8,4.6,11.2,4.6c4.4,0,8.1-1.5,11.2-4.6
		c3.1-3.1,4.6-6.8,4.6-11.2c0-4.4-1.5-8.1-4.6-11.2C644.2,83.1,640.5,81.6,636.1,81.6z"/>
	<path class="st2" d="M689.1,117.3h-6.6l-14-20.1v20.1h-5.4V50.7h5.4v45.1L680,77.3h6.4l-11.8,19.2L689.1,117.3z"/>
</g>
<g class="st3">
	<path class="st2" d="M288.5,145c0-0.4,0.4-0.8,1-1c0.5,0.3,1.3,0.9,2.7,0.9c1.3,0,3-0.5,3-2.4c0-3.8-6.9-6.1-6.9-11.4
		c0-3.1,2-5,5.1-5c1.7,0,3.2,0.6,3.2,1.3c0,0.4-0.4,0.7-0.8,0.9c-0.6-0.4-1.4-0.6-2.3-0.6c-0.8,0-3.1,0.3-3.1,3.3
		c0,4.6,6.9,7,6.9,11.4c0,3.3-3.4,4.1-5.3,4.1C290.5,146.5,288.5,146,288.5,145z"/>
	<path class="st2" d="M301.6,139.7c0.2,3.6,1.1,5.4,3.2,5.4c1.1,0,1.8-0.6,2-1.3c0.2-0.1,0.4-0.2,0.7-0.2c0.5,0,0.8,0.2,0.8,0.7
		c0,0.4-0.2,0.7-0.6,1.1c-0.6,0.5-1.4,1-3.2,1c-3.8,0-5-3.3-5-8.1c0-4.9,1.8-7.6,4.5-7.6c2.7,0,4,2.5,4,7.5c0,0.4-0.1,1.1-0.3,1.4
		C306,139.6,303.6,139.6,301.6,139.7z M301.6,138.3c1.6,0,3.3,0,4.7-0.1c0-3.9-0.9-5.9-2.2-5.9C302.7,132.3,301.6,134,301.6,138.3z"
		/>
	<path class="st2" d="M313.7,146.3c-0.3,0.1-0.9,0.2-1.4,0.2c-0.6,0-1-0.2-1-0.8c0-4.8,0.2-9.7-0.1-14.7c0.2-0.1,0.5-0.3,1.1-0.3
		c0.6,0,1.2,0.3,1.2,0.9c-0.1,1.2-0.2,2.5-0.2,3.7c0.7-2.2,2.5-4.6,4.6-4.6c1.8,0,2.5,1.2,2.6,3.2c0,0.4-0.4,0.8-1.1,0.8
		c-0.5,0-0.9-0.2-1.1-0.4c-0.1-1.4-0.4-1.7-1.1-1.7c-1.8,0-3.6,3.1-3.7,5.4C313.3,140.6,313.5,143.9,313.7,146.3z"/>
	<path class="st2" d="M326.1,145.9c-1.8-5.1-3.1-9.9-4.6-14.9c0.3-0.1,0.8-0.2,1.2-0.2c0.5,0,1,0.2,1.2,0.7c1.2,4.2,2.3,8.1,3.5,12
		c1-3.7,2.9-9.8,3.4-12.6c0.2-0.1,0.5-0.1,0.9-0.1c0.6,0,1,0.4,1,0.7c0,0.2,0,0.4-0.1,0.6c-1.2,4.8-3.3,9.8-4.2,14.3
		c-0.4,0.2-0.7,0.2-1.1,0.2C326.8,146.5,326.2,146.4,326.1,145.9z"/>
	<path class="st2" d="M335.2,145.8c0.2-4.8,0-10.9,0.1-14.8c0.2-0.1,0.5-0.2,1-0.2c0.5,0,1,0.2,1,0.7c-0.2,4.3-0.2,10.4-0.1,15
		c-0.2,0.1-0.4,0.2-0.9,0.2C335.8,146.5,335.1,146.3,335.2,145.8z M335.5,127.9c0-0.7,0-1.4,0-2.2c0.2-0.1,0.6-0.2,1-0.2
		c0.5,0,1,0.2,1,0.6c0,0.7,0,1.6,0,2.3c-0.3,0.1-0.7,0.2-1.1,0.2C335.8,128.7,335.5,128.4,335.5,127.9z"/>
	<path class="st2" d="M340.5,138.1c0-4.9,1.7-7.4,4.8-7.4c0.9,0,2.2,0.3,2.2,1c0,0.5-0.4,0.7-0.7,0.8c-0.5-0.2-0.9-0.2-1.5-0.2
		c-1.9,0-2.8,1.9-2.8,6c0,4.3,1.1,6.7,3.1,6.7c0.7,0,1.1-0.1,1.7-0.3c0.4,0.1,0.6,0.3,0.6,0.8c0,0.6-1.1,1.1-2.3,1.1
		C342.1,146.5,340.5,143.2,340.5,138.1z"/>
	<path class="st2" d="M350.3,145.8c0.2-4.8,0-10.9,0.1-14.8c0.2-0.1,0.5-0.2,1-0.2c0.5,0,1,0.2,1,0.7c-0.2,4.3-0.2,10.4-0.1,15
		c-0.2,0.1-0.4,0.2-0.9,0.2C350.9,146.5,350.2,146.3,350.3,145.8z M350.6,127.9c0-0.7,0-1.4,0-2.2c0.2-0.1,0.6-0.2,1-0.2
		c0.5,0,1,0.2,1,0.6c0,0.7,0,1.6,0,2.3c-0.3,0.1-0.7,0.2-1.1,0.2C350.9,128.7,350.6,128.4,350.6,127.9z"/>
	<path class="st2" d="M355.7,138.5c0-5.2,1.7-7.8,4.9-7.8c2.7,0.1,4.5,2.7,4.5,7.3c0,6.3-2.3,8.4-4.5,8.4
		C357.7,146.5,355.7,144,355.7,138.5z M357.7,138.5c0,4.1,1,6.4,2.7,6.5c1.5,0,2.6-2.4,2.6-6.9c0-3.5-0.9-5.7-2.6-5.7
		C358.6,132.4,357.7,134.5,357.7,138.5z"/>
	<path class="st2" d="M379,144.4c-0.7,1.3-1.7,2.1-3,2.1c-1.7,0-3.8-1.7-3.8-7.5c0-5.9,1.3-8.2,4-8.2c1.4,0,2.3,0.9,2.9,2.2
		c-0.1-3-0.2-5.9-0.3-8c0.3-0.1,0.7-0.2,1.3-0.2c0.6,0,1,0.3,1,0.8c0,6.6-0.1,16,0.2,20.8c-0.4,0.2-0.7,0.3-1.2,0.3
		c-0.5,0-1.1-0.1-1.1-0.6C378.9,145.6,379,145,379,144.4z M379,134.5c-0.6-1.1-1.6-2.1-2.6-2.1c-1.5,0-2.2,2.1-2.2,6.1
		c0,4.6,1.3,6.3,2.5,6.3c0.9,0,2.1-1,2.2-2.8C379,139.6,379.1,137,379,134.5z"/>
	<path class="st2" d="M386.1,139.7c0.2,3.6,1.1,5.4,3.2,5.4c1.1,0,1.8-0.6,2-1.3c0.2-0.1,0.4-0.2,0.7-0.2c0.5,0,0.8,0.2,0.8,0.7
		c0,0.4-0.2,0.7-0.6,1.1c-0.6,0.5-1.4,1-3.2,1c-3.8,0-5-3.3-5-8.1c0-4.9,1.8-7.6,4.5-7.6c2.7,0,4,2.5,4,7.5c0,0.4-0.1,1.1-0.3,1.4
		C390.5,139.6,388.1,139.6,386.1,139.7z M386,138.3c1.6,0,3.3,0,4.7-0.1c0-3.9-0.9-5.9-2.2-5.9C387.2,132.3,386.1,134,386,138.3z"/>
	<path class="st2" d="M400,138.1c0-4.9,1.7-7.4,4.8-7.4c0.9,0,2.2,0.3,2.2,1c0,0.5-0.4,0.7-0.7,0.8c-0.5-0.2-0.9-0.2-1.5-0.2
		c-1.9,0-2.8,1.9-2.8,6c0,4.3,1.1,6.7,3.1,6.7c0.7,0,1.1-0.1,1.7-0.3c0.4,0.1,0.6,0.3,0.6,0.8c0,0.6-1.1,1.1-2.3,1.1
		C401.5,146.5,400,143.2,400,138.1z"/>
	<path class="st2" d="M409.1,138.5c0-5.2,1.7-7.8,4.9-7.8c2.7,0.1,4.5,2.7,4.5,7.3c0,6.3-2.3,8.4-4.5,8.4
		C411.1,146.5,409.1,144,409.1,138.5z M411.1,138.5c0,4.1,1,6.4,2.7,6.5c1.5,0,2.6-2.4,2.6-6.9c0-3.5-0.9-5.7-2.6-5.7
		C412,132.4,411.1,134.5,411.1,138.5z"/>
	<path class="st2" d="M422.6,145.7c0.1-4.4,0-8.9-0.2-13.4c-0.5,0-1,0-1.2,0c-0.8,0-1.1-0.3-1.1-0.7c0-0.4,0.1-0.6,0.4-0.8
		c0.4,0,1,0,1.8,0c0-4.4,1.9-5.8,4.7-5.8c1.2,0,2,0.2,2.6,0.4c0.5,0.2,0.6,0.5,0.6,0.7c0,0.4-0.4,0.8-0.8,1
		c-0.7-0.3-1.3-0.5-2.2-0.5c-1.9,0-2.8,0.9-2.9,4.2c2,0,4.5,0,6.7,0c-0.1-4.6,1.8-6.2,4.7-6.2c1.2,0,2.1,0.2,2.7,0.6
		c0.5,0.3,0.6,0.5,0.6,0.8c0,0.4-0.3,0.7-0.7,0.8c-0.6-0.4-1.5-0.7-2.5-0.7c-1.8,0-2.6,1-2.7,4.6c1.3,0,2.3,0,2.8,0
		c0.5,0,0.8,0.3,0.8,0.7c0,0.4-0.2,0.6-0.4,0.8c-0.5,0-1.8,0-3.2,0c0,4.4,0.1,10.1,0.3,14c-0.3,0.2-0.7,0.3-1.2,0.3
		c-0.5,0-0.9-0.2-0.9-0.8c0-4.4-0.1-8.9-0.2-13.4c-2.3,0-4.7,0-6.7,0c0,4.4,0.1,10,0.3,13.9c-0.3,0.2-0.7,0.3-1.2,0.3
		C423.1,146.5,422.6,146.2,422.6,145.7z"/>
	<path class="st2" d="M440,139.7c0.2,3.6,1.1,5.4,3.2,5.4c1.1,0,1.8-0.6,2-1.3c0.2-0.1,0.4-0.2,0.7-0.2c0.5,0,0.8,0.2,0.8,0.7
		c0,0.4-0.2,0.7-0.6,1.1c-0.6,0.5-1.5,1-3.2,1c-3.8,0-5-3.3-5-8.1c0-4.9,1.8-7.6,4.5-7.6c2.7,0,4,2.5,4,7.5c0,0.4-0.1,1.1-0.3,1.4
		C444.4,139.6,442,139.6,440,139.7z M440,138.3c1.6,0,3.3,0,4.7-0.1c0-3.9-0.9-5.9-2.2-5.9C441.1,132.3,440,134,440,138.3z"/>
	<path class="st2" d="M451.2,139.7c0.2,3.6,1.1,5.4,3.2,5.4c1.1,0,1.8-0.6,2-1.3c0.2-0.1,0.4-0.2,0.7-0.2c0.5,0,0.8,0.2,0.8,0.7
		c0,0.4-0.2,0.7-0.6,1.1c-0.6,0.5-1.5,1-3.2,1c-3.8,0-5-3.3-5-8.1c0-4.9,1.8-7.6,4.5-7.6c2.7,0,4,2.5,4,7.5c0,0.4-0.1,1.1-0.3,1.4
		C455.6,139.6,453.2,139.6,451.2,139.7z M451.1,138.3c1.6,0,3.3,0,4.7-0.1c0-3.9-0.9-5.9-2.2-5.9C452.3,132.3,451.2,134,451.1,138.3
		z"/>
	<path class="st2" d="M505.4,132.1c0.7-0.9,1.6-1.5,2.7-1.5c3.1,0,3.9,4.4,3.9,8.1c0,5.2-1.9,7.9-5.1,7.9c-1.4,0-2.7-0.5-3.5-1
		c0.4-4.2-0.2-16.7,0-20.6c0.4-0.2,0.7-0.3,1.2-0.3c0.6,0,1.1,0.2,1.1,0.7C505.4,127.5,505.4,129.8,505.4,132.1z M505.4,133.9
		c0,4.2,0.1,8.2,0,10.7c0.4,0.2,0.8,0.4,1.4,0.4c1.8,0,3.1-2.2,3.1-6.3c0-2.8-0.5-6.4-2.3-6.4C506.8,132.3,506,132.9,505.4,133.9z"
		/>
	<path class="st2" d="M517.4,146.3c-0.3,0.1-0.9,0.2-1.4,0.2c-0.6,0-1-0.2-1-0.8c0-4.8,0.2-9.7-0.1-14.7c0.2-0.1,0.5-0.3,1.1-0.3
		c0.6,0,1.2,0.3,1.2,0.9c-0.1,1.2-0.2,2.5-0.2,3.7c0.7-2.2,2.5-4.6,4.6-4.6c1.8,0,2.5,1.2,2.6,3.2c0,0.4-0.4,0.8-1.1,0.8
		c-0.5,0-0.9-0.2-1.1-0.4c-0.1-1.4-0.4-1.7-1.1-1.7c-1.8,0-3.6,3.1-3.7,5.4C517,140.6,517.2,143.9,517.4,146.3z"/>
	<path class="st2" d="M527.6,139.7c0.2,3.6,1.1,5.4,3.2,5.4c1.1,0,1.8-0.6,2-1.3c0.2-0.1,0.4-0.2,0.7-0.2c0.5,0,0.8,0.2,0.8,0.7
		c0,0.4-0.2,0.7-0.6,1.1c-0.6,0.5-1.5,1-3.2,1c-3.8,0-5-3.3-5-8.1c0-4.9,1.8-7.6,4.5-7.6c2.7,0,4,2.5,4,7.5c0,0.4-0.1,1.1-0.3,1.4
		C532,139.6,529.6,139.6,527.6,139.7z M527.6,138.3c1.6,0,3.3,0,4.7-0.1c0-3.9-0.9-5.9-2.2-5.9C528.7,132.3,527.6,134,527.6,138.3z"
		/>
	<path class="st2" d="M543.7,143.9c-0.7,1.5-2,2.6-3.5,2.6c-1.8,0-3.3-1.2-3.3-4.4c0-3.1,2.1-4.9,6.6-4.9c0-1,0-1.8,0-2.1
		c0-1.7-0.8-2.8-2.5-2.8c-1.2,0-1.9,0.5-2.2,1.7c-1,0.2-1.7-0.1-1.7-0.9c0-0.7,0.4-1.1,0.9-1.4c0.6-0.5,1.8-0.9,2.9-0.9
		c2.9,0,4.7,1.3,4.6,3.9c-0.1,1.8,0,10.4,0.1,11.7c-0.3,0.1-0.5,0.2-1,0.2c-0.6,0-1-0.2-1-0.7C543.6,145.7,543.6,144.8,543.7,143.9z
		 M543.5,138.4c-3.4,0.1-4.8,1.2-4.8,3.7c0,1.8,0.8,2.9,1.9,2.9c1.5,0,2.9-1.7,2.8-3.8C543.5,140.3,543.5,139.3,543.5,138.4z"/>
	<path class="st2" d="M549.9,146.5c-0.7,0-1.1-0.2-1-0.8c0.1-5.6-0.4-13.9-0.3-20.7c0.2-0.2,0.4-0.4,1.1-0.4c0.7,0,1.1,0.3,1.1,0.8
		c-0.1,5.2-0.1,10.2,0,15.4c2.4-1.4,3.6-3.6,3.6-6c0-1.6-1-2.8-2.7-2.8c-0.1-0.1-0.2-0.3-0.2-0.6c0-0.4,0.4-0.7,1.1-0.7
		c2.3,0,3.8,1.8,3.8,4.2c0,2.4-1.8,5.3-4.3,6.5c1.6,0.6,2.6,3.3,3.8,3.3c0.4,0,0.6-0.1,0.8-0.3c0.3,0.1,0.7,0.3,0.7,0.8
		c0,0.7-0.8,1.2-1.8,1.2c-2.5,0-2.8-3.6-4.9-4c0.1,1.1,0.1,2.8,0.1,3.8C550.7,146.4,550.4,146.5,549.9,146.5z"/>
	<path class="st2" d="M566.4,144.9c0,2.6,0.1,5.7,0.3,7.1c-0.3,0.2-0.6,0.3-1.2,0.3c-0.5,0-1-0.3-1-0.8c-0.1-4.2,0.2-17.2-0.2-20.5
		c0.3-0.1,0.7-0.2,1.1-0.2c0.7,0,1.1,0.3,1.1,0.7c0,0.7-0.1,1.4-0.1,2c0.6-1.3,2-2.7,3.5-2.7c2.6,0,3.5,2.8,3.5,7.4
		c0,5.8-1.7,8.4-4.4,8.4C567.9,146.5,566.9,145.9,566.4,144.9z M566.5,142.3c0,1.4,0.9,2.6,2.2,2.6c1.8,0,2.7-1.8,2.7-6.7
		c0-4.8-1.1-5.8-2.1-5.8c-1.2,0-2.8,1.4-2.9,3.3C566.4,138.1,566.5,140.7,566.5,142.3z"/>
	<path class="st2" d="M582.8,143.9c-0.7,1.5-2,2.6-3.5,2.6c-1.8,0-3.3-1.2-3.3-4.4c0-3.1,2.1-4.9,6.6-4.9c0-1,0-1.8,0-2.1
		c0-1.7-0.8-2.8-2.5-2.8c-1.2,0-1.9,0.5-2.2,1.7c-1,0.2-1.7-0.1-1.7-0.9c0-0.7,0.4-1.1,0.9-1.4c0.6-0.5,1.8-0.9,2.9-0.9
		c2.9,0,4.7,1.3,4.6,3.9c-0.1,1.8,0,10.4,0.1,11.7c-0.3,0.1-0.5,0.2-1,0.2c-0.6,0-1-0.2-1-0.7C582.7,145.7,582.7,144.8,582.8,143.9z
		 M582.6,138.4c-3.4,0.1-4.8,1.2-4.8,3.7c0,1.8,0.8,2.9,1.9,2.9c1.5,0,2.9-1.7,2.8-3.8C582.6,140.3,582.6,139.3,582.6,138.4z"/>
	<path class="st2" d="M590.5,146.3c-0.3,0.1-0.9,0.2-1.4,0.2c-0.6,0-1-0.2-1-0.8c0-4.8,0.2-9.7-0.1-14.7c0.2-0.1,0.5-0.3,1.1-0.3
		c0.6,0,1.2,0.3,1.2,0.9c-0.1,1.2-0.2,2.5-0.2,3.7c0.7-2.2,2.5-4.6,4.6-4.6c1.8,0,2.5,1.2,2.6,3.2c0,0.4-0.4,0.8-1.1,0.8
		c-0.5,0-0.9-0.2-1.1-0.4c-0.1-1.4-0.4-1.7-1.1-1.7c-1.8,0-3.6,3.1-3.7,5.4C590.1,140.6,590.3,143.9,590.5,146.3z"/>
	<path class="st2" d="M605.3,143.9c-0.7,1.5-2,2.6-3.5,2.6c-1.8,0-3.3-1.2-3.3-4.4c0-3.1,2.1-4.9,6.6-4.9c0-1,0-1.8,0-2.1
		c0-1.7-0.8-2.8-2.5-2.8c-1.2,0-1.9,0.5-2.2,1.7c-1,0.2-1.7-0.1-1.7-0.9c0-0.7,0.4-1.1,0.9-1.4c0.6-0.5,1.8-0.9,2.9-0.9
		c2.9,0,4.7,1.3,4.6,3.9c-0.1,1.8,0,10.4,0.1,11.7c-0.3,0.1-0.5,0.2-1,0.2c-0.6,0-1-0.2-1-0.7C605.3,145.7,605.3,144.8,605.3,143.9z
		 M605.2,138.4c-3.4,0.1-4.8,1.2-4.8,3.7c0,1.8,0.8,2.9,1.9,2.9c1.5,0,2.9-1.7,2.8-3.8C605.2,140.3,605.2,139.3,605.2,138.4z"/>
	<path class="st2" d="M616.8,139.7c0.2,3.6,1.1,5.4,3.2,5.4c1.1,0,1.8-0.6,2-1.3c0.2-0.1,0.4-0.2,0.7-0.2c0.5,0,0.8,0.2,0.8,0.7
		c0,0.4-0.2,0.7-0.6,1.1c-0.6,0.5-1.5,1-3.2,1c-3.8,0-5-3.3-5-8.1c0-4.9,1.8-7.6,4.5-7.6c2.7,0,4,2.5,4,7.5c0,0.4-0.1,1.1-0.3,1.4
		C621.2,139.6,618.8,139.6,616.8,139.7z M616.8,138.3c1.6,0,3.3,0,4.7-0.1c0-3.9-0.9-5.9-2.2-5.9C617.9,132.3,616.8,134,616.8,138.3
		z"/>
	<path class="st2" d="M629.7,145.9c-1.8-5.1-3.1-9.9-4.6-14.9c0.3-0.1,0.8-0.2,1.2-0.2c0.5,0,1,0.2,1.2,0.7c1.2,4.2,2.3,8.1,3.5,12
		c1-3.7,2.9-9.8,3.4-12.6c0.2-0.1,0.5-0.1,0.9-0.1c0.6,0,1,0.4,1,0.7c0,0.2,0,0.4-0.1,0.6c-1.2,4.8-3.3,9.8-4.2,14.3
		c-0.4,0.2-0.7,0.2-1.1,0.2C630.4,146.5,629.9,146.4,629.7,145.9z"/>
	<path class="st2" d="M639.9,139.7c0.2,3.6,1.1,5.4,3.2,5.4c1.1,0,1.8-0.6,2-1.3c0.2-0.1,0.4-0.2,0.7-0.2c0.5,0,0.8,0.2,0.8,0.7
		c0,0.4-0.2,0.7-0.6,1.1c-0.6,0.5-1.5,1-3.2,1c-3.8,0-5-3.3-5-8.1c0-4.9,1.8-7.6,4.5-7.6c2.7,0,4,2.5,4,7.5c0,0.4-0.1,1.1-0.3,1.4
		C644.3,139.6,641.9,139.6,639.9,139.7z M639.9,138.3c1.6,0,3.3,0,4.7-0.1c0-3.9-0.9-5.9-2.2-5.9C641,132.3,639.9,134,639.9,138.3z"
		/>
	<path class="st2" d="M651.8,134.7c0.7-2.3,2.5-3.9,4.3-3.9c1.8,0,2.9,1.6,2.9,3.7c0,3.7-0.2,8.3,0,11.7c-0.2,0.2-0.5,0.4-1.1,0.4
		c-0.5,0-1.1-0.2-1.1-0.8c0-3.8,0.2-6.3,0.1-10.2c0-1.8-0.6-2.9-1.8-2.9c-1.5,0-3.2,2.6-3.3,5.1c0,2.6,0.1,5.9,0.2,8.3
		c-0.2,0.2-0.6,0.3-1.1,0.3c-0.8,0-1.1-0.4-1.1-0.7c0-4.8-0.1-10-0.4-14.8c0.2-0.1,0.5-0.3,1.2-0.3c0.7,0,1.1,0.4,1,0.9
		C651.7,132.4,651.8,133.6,651.8,134.7z"/>
	<path class="st2" d="M665.6,132.3c-0.1,3.3-0.3,6.8-0.2,9.8c0.1,1.8,0.7,2.7,1.9,2.7c0.6,0,1.3-0.1,1.8-0.3
		c0.2,0.2,0.4,0.5,0.4,0.9c0,0.7-1,1.1-2.3,1.1c-2.6,0-3.8-1.6-3.8-4.3c0-3.2,0.1-6.6,0.1-9.9c-0.6,0-1.2,0-1.8,0
		c-0.6,0-0.9-0.3-0.9-0.7c0-0.4,0.3-0.8,0.4-0.8c0.7,0,1.5,0,2.3,0c0-1.5,0-3-0.1-4.4c0.3-0.1,0.6-0.2,1.1-0.2c0.7,0,0.9,0.2,1,0.7
		c0.1,1.3,0.1,2.6,0.1,3.9c1.1,0,2.1,0,3,0c0.6,0,0.9,0.3,0.9,0.7c0,0.4-0.2,0.6-0.3,0.8C668.2,132.3,666.9,132.3,665.6,132.3z"/>
	<path class="st2" d="M671.3,138.5c0-5.2,1.7-7.8,4.9-7.8c2.7,0.1,4.5,2.7,4.5,7.3c0,6.3-2.3,8.4-4.5,8.4
		C673.3,146.5,671.3,144,671.3,138.5z M673.3,138.5c0,4.1,1,6.4,2.7,6.5c1.5,0,2.6-2.4,2.6-6.9c0-3.5-0.9-5.7-2.6-5.7
		C674.3,132.4,673.3,134.5,673.3,138.5z"/>
	<path class="st2" d="M683.4,145.7c-0.3-0.2-0.5-0.6-0.5-0.9c0-0.4,0.4-0.8,0.9-0.8c0.5,0.3,1.4,1,2.8,1c1.6,0,2.5-0.9,2.5-2.2
		c0-2.5-5.9-4.5-5.9-8c0-2.5,1.7-4,4.2-4c1,0,2,0.2,2.7,0.7c0.3,0.2,0.6,0.5,0.6,1c0,0.5-0.5,0.8-1.1,0.8c-0.4-0.4-1.2-1-2.4-1
		c-1.3,0-2.1,1-2.1,2.2c0,3.1,6,4.9,6,8.2c0,2.2-2.1,3.7-4.6,3.7C685.2,146.5,684.2,146.2,683.4,145.7z"/>
</g>
</svg>
