<?xml version="1.0" encoding="utf-8"?>
<!-- Generator: Adobe Illustrator 22.1.0, SVG Export Plug-In . SVG Version: 6.00 Build 0)  -->
<svg version="1.1" id="Layer_1" xmlns="http://www.w3.org/2000/svg" xmlns:xlink="http://www.w3.org/1999/xlink" x="0px" y="0px"
	 viewBox="0 0 706.1 168.9" style="enable-background:new 0 0 706.1 168.9;" xml:space="preserve">
<style type="text/css">
	.st0{fill:#FFFFFF;}
	.st1{enable-background:new    ;}
	.st2{fill:none;stroke:#FFFFFF;stroke-width:1.8893;stroke-miterlimit:10;}
</style>
<g>
	<g>
		<path class="st0" d="M167.3,6.5c0.8,1.6,1.5,3.3,2.4,4.9c1.7,3.3,4.4,5.7,7.5,7.7c6.6,4.3,13.1,8.8,19.5,13.3c2.9,2,5.2,4.7,6.4,8
			c1.4,3.6,0.7,7.2-0.3,10.8c-0.6,1.9-1.3,3.7-2,5.5c-0.1,0.3-0.3,0.5-0.5,0.7c-0.2-0.2-0.4-0.4-0.5-0.7c-0.8-2.3-1.6-4.6-2.5-6.9
			c-1.1-3-3.1-5.4-5.9-7.1c-6.2-4-12.4-8-18.5-12.2c-2.2-1.5-4.3-3.5-6.1-5.5c-2.9-3.1-3.9-6.9-2.9-11c0.6-2.6,1.6-5,2.4-7.5
			c0.1-0.2,0.3-0.4,0.5-0.7c0.2,0.2,0.4,0.4,0.6,0.6C167.4,6.5,167.4,6.5,167.3,6.5z"/>
		<path class="st0" d="M149.5,31.8c1,0.9,1.9,1.7,2.7,2.4c2.3,1.9,5,3,8,3.5c6,0.9,12,2,17.9,3c1.5,0.3,3,0.8,4.5,1.4
			c3.4,1.3,5.8,3.8,6.6,7.3c0.6,2.5,0.7,5.1,1.1,7.7c0,0.2-0.1,0.5-0.2,0.8c-0.2-0.1-0.4-0.2-0.6-0.4c-1.3-1.4-2.6-2.7-4-4.1
			c-1.8-1.8-4-2.8-6.5-3.2c-5.5-0.9-10.9-1.6-16.4-2.6c-2.6-0.5-5.1-1.3-7.5-2.3c-2.8-1.1-4.6-3.3-5.3-6.1c-0.5-2.2-0.7-4.5-0.9-6.8
			c0-0.3,0.1-0.5,0.2-0.8C149.3,31.6,149.5,31.8,149.5,31.8z"/>
		<path class="st0" d="M208.9,149.8c0,7.3,5.9,13.3,13.3,13.3c7.3,0,13.3-5.9,13.3-13.3c0-2.1-0.5-4-1.3-5.8
			c-2.1-4.4-6.7-7.5-12-7.5C214.9,136.6,208.9,142.3,208.9,149.8L208.9,149.8z M214.9,151.3c0-0.5,0.1-1,0.2-1.5
			c0.6-2.5,2.9-4.3,5.6-4.3c2.7,0,4.9,1.8,5.6,4.3c0.1,0.5,0.2,1,0.2,1.5c0,3.2-2.6,5.8-5.8,5.8
			C217.5,157.1,214.9,154.3,214.9,151.3z"/>
		<path class="st0" d="M122.8,121.8c3.9,2.5,8.3,3.8,12.9,3.8c4.4,0,8.8,0,13.2,0c1,0,1.6,0.3,2,1.2c3.6,6.5,7.8,12.4,13.2,17.5
			c2.2-5.8,7.8-9.9,14.4-9.9c8.5,0,15.4,6.9,15.5,15.4c4.1,0,8.1,0,12.2,0c0-8.8,7.1-15.9,15.9-15.9c6.3,0,11.8,3.7,14.3,9
			c4-4,7.3-8.5,10.2-13.4c7.4-12.4,11.7-25.9,13.4-40.2c0.6-5.1,0.9-10.3,1-15.5c0.2-5.9-4-10.1-10-10.1c-15.9,0-31.8,0-47.6,0
			c-1.3,0-2.6,0-4,0c-17.1,0-34.2,0-51.3,0c-5.2,0-9,3-10,7.8c-0.2,1.2-0.2,2.5-0.2,3.8c0.1,1.1-0.2,1.5-1.4,1.4
			c-4.4-0.1-8.5,0.8-12.4,2.9C107.8,88.3,107,111.8,122.8,121.8z M121.6,99c1-6.8,6.9-13.2,16.4-12.4c0.4,0,0.9,0.8,0.9,1.3
			c0.5,2.9,0.7,5.9,1.5,8.8c1.5,5.9,3.3,11.8,5,17.6c0.3,1,0.2,1.3-0.9,1.2c-1.6-0.1-3.1,0-4.7,0l0,0c-1.5,0-2.9,0-4.4,0
			C126.9,115.3,120.4,107.3,121.6,99z"/>
		<path class="st0" d="M165.8,149.8c0,7.1,5.7,12.8,12.8,12.8s12.8-5.7,12.8-12.8l0,0c0-7.1-5.8-12.8-12.8-12.8
			c-5.4,0-10.1,3.4-11.9,8.2C166.1,146.6,165.8,148.3,165.8,149.8z M171.1,149.6c0-0.3,0-0.5,0.1-0.8c0.4-2.9,2.9-5.2,5.9-5.2
			c3.3,0,6,2.7,6,6v0.1c-0.1,3.2-2.7,5.9-6,5.9S171.1,152.8,171.1,149.6z"/>
		<g>
			<path class="st0" d="M106.6,112.8c-8.3,0.3-16.5,0.6-24.8,0.9c-10.2,0.4-20.4,0.7-30.6,1.1c-4.4,0.2-8.9,0.3-13.3,0.5
				c-0.5,0-1,0.2-1.4,0.2c0,0.1,0,0.2,0,0.4c1.2,0.2,2.4,0.6,3.7,0.6c7.5,0.3,14.9,0.5,22.4,0.8c8.1,0.3,16.2,0.7,24.3,1
				c5.2,0.2,10.4,0.4,15.6,0.6c3.1,0.1,6.2,0.3,9.3,0.4c0.1,0,0.1,0,0.2,0c-1.9-2-3.6-4.2-5-6.6
				C106.8,112.8,106.7,112.8,106.6,112.8z"/>
			<path class="st0" d="M123.2,66.3c-15.5,0.4-31,0.8-46.5,1.2c-10.4,0.3-20.9,0.6-31.3,0.9c-12.3,0.3-24.6,0.6-37,1
				c-1.5,0-2.9,0.2-4.4,0.3c0,0.1,0,0.3,0,0.4c0.3,0.1,0.6,0.2,1,0.2c1.6,0.1,3.2,0.3,4.9,0.3c4.8,0.1,9.6,0.1,14.4,0.2
				c8.2,0.2,16.5,0.5,24.7,0.7c3.6,0.1,7.1,0.1,10.7,0.2c7.4,0.2,14.7,0.5,22.1,0.7c5.4,0.1,10.8,0.2,16.2,0.4
				c6,0.2,12.1,0.4,18.1,0.6C118.1,70.8,120.5,68.5,123.2,66.3z"/>
			<path class="st0" d="M92.2,88.8c-11.8,0.1-23.7,0.3-35.5,0.4c-7.5,0.1-14.9,0.2-22.4,0.3c-4.8,0.1-9.7,0.1-14.5,0.2
				c-1,0-2,0.2-3,0.3c0,0.1,0,0.2,0,0.2c0.2,0.1,0.3,0.2,0.5,0.2c1.8,0.2,3.6,0.5,5.5,0.6c4.8,0.3,9.6,0.5,14.4,0.7
				c4.3,0.2,8.7,0.4,13,0.7c2.4,0.1,4.7,0.2,7.1,0.3c6.3,0.4,12.5,0.8,18.8,1.2c7.6,0.4,15.1,0.8,22.7,1.1c2.6,0.1,5.2,0.2,7.8,0.3
				c0.1-2.3,0.5-4.6,1.1-6.8C102.4,88.5,97.3,88.5,92.2,88.8z"/>
			<path class="st0" d="M108.2,136.3c-10.6,0.5-21.2,1-31.8,1.5c-3.7,0.2-7.4,0.2-11,0.4c-0.7,0-1.5,0.2-2.2,0.3c0,0.1,0,0.3,0,0.4
				c0.9,0.2,1.9,0.4,2.8,0.4c2,0.1,4,0.2,6,0.3c6.3,0.2,12.5,0.2,18.8,0.4c13.7,0.4,27.3,0.9,41,1.4c7.7,0.3,15.5,0.5,23.2,0.7
				c0.3,0,0.7,0,1-0.1c-0.1-0.1-0.1-0.1-0.2-0.2c-8.9-0.8-17.2-3-24.5-6.5C123.6,135.8,115.9,136.1,108.2,136.3z"/>
		</g>
	</g>
	<g>
		<g class="st1">
			<path class="st0" d="M319.8,117.5h-5.4v-40h-23.5v40h-5.4v-40h-8.1l3.2-5.5h4.9v-21h5.4v21h23.5v-21h5.4V117.5z"/>
			<path class="st0" d="M360.6,112.1c-4.2,4.4-9.3,6.6-15.3,6.6c-5.7,0-10.7-2.1-14.9-6.3c-4.2-4.2-6.3-9.1-6.3-14.9
				c0-5.9,2.1-10.9,6.3-15c4.2-4.1,9.1-6.2,14.9-6.2c5.9,0,11,2.2,15.3,6.6l5.9-5.5v40L360.6,112.1z M345.4,81.8
				c-4.4,0-8.2,1.5-11.2,4.6s-4.6,6.8-4.6,11.2c0,4.4,1.5,8.2,4.6,11.2s6.8,4.6,11.2,4.6c4.4,0,8.1-1.5,11.2-4.6
				c3.1-3.1,4.6-6.8,4.6-11.2c0-4.4-1.5-8.1-4.6-11.2C353.4,83.3,349.7,81.8,345.4,81.8z"/>
			<path class="st0" d="M372.4,117.5v-40l4.6,3.7c3.1-3.2,6.9-4.8,11.4-4.8c4.5,0,8.3,1.5,11.4,4.6c3.1,3.1,4.6,6.9,4.6,11.4v25.2
				h-5.4V92.4c0-3.1-1-5.6-3.1-7.6c-2.1-2-4.6-3-7.5-3c-2.9,0-5.4,1-7.5,3.1c-2.1,2.1-3.1,4.6-3.1,7.5v25.2H372.4z"/>
			<path class="st0" d="M429.8,76.4c6.3,0,11.5,2.3,15.8,7V50.9h5.4v66.6l-5.9-5.4c-4.2,4.4-9.3,6.6-15.3,6.6
				c-5.7,0-10.7-2.1-14.9-6.3c-4.2-4.2-6.3-9.1-6.3-14.9c0-5.9,2.1-10.9,6.3-15C419.1,78.5,424.1,76.4,429.8,76.4z M429.8,81.8
				c-4.4,0-8.2,1.5-11.2,4.6s-4.6,6.8-4.6,11.2c0,4.4,1.5,8.2,4.6,11.2s6.8,4.6,11.2,4.6c4.4,0,8.1-1.5,11.2-4.6
				c3.1-3.1,4.6-6.8,4.6-11.2c0-4.4-1.5-8.1-4.6-11.2C437.9,83.3,434.2,81.8,429.8,81.8z"/>
			<path class="st0" d="M459.2,136.1l4.2-3.1c2.1,3.1,5.1,4.7,9.1,4.7c3.3,0,5.9-1.1,7.9-3.2c2-2.2,3-4.7,3-7.6v-12.2
				c-3,2.7-6.5,4-10.6,4c-4.5,0-8.3-1.5-11.4-4.6c-3.1-3.1-4.6-6.9-4.6-11.4V77.5h5.4v25.2c0,2.9,1.1,5.4,3.2,7.5
				c2.1,2.1,4.6,3.1,7.4,3.1c3.1,0,5.6-1.1,7.6-3.2c2-2.1,3-4.6,3-7.4V77.5h5.4v49.3c0,4.5-1.6,8.3-4.7,11.5
				c-3.2,3.2-7,4.7-11.5,4.7C466.9,143.1,462.5,140.8,459.2,136.1z"/>
		</g>
		<g class="st1">
			<path class="st0" d="M525.8,74.9c3.5,2,6.3,4.7,8.4,8.2c2.2,3.5,3.2,7.4,3.2,11.7c0,4.1-1,7.9-3,11.4c-2,3.5-4.8,6.3-8.3,8.3
				c-3.5,2-7.3,3-11.4,3h-14.4v-40h-8.1l3.2-5.5h4.9v-21H518c3.7,0,6.8,1.3,9.3,3.9c2.6,2.6,3.9,5.7,3.9,9.4
				C531.3,68.8,529.4,72.3,525.8,74.9z M505.7,72.1H518c2.3,0,4.2-0.8,5.7-2.4c1.4-1.6,2.2-3.4,2.2-5.4c0-2.3-0.8-4.3-2.3-5.7
				c-1.5-1.5-3.4-2.2-5.5-2.2h-12.3V72.1z M505.7,77.5v34.7h9c5,0,9.1-1.7,12.4-5.2c3.3-3.5,4.9-7.5,4.9-12.1c0-3.3-0.8-6.3-2.4-8.9
				c-1.6-2.6-3.7-4.7-6.4-6.2c-2.7-1.5-5.5-2.3-8.5-2.3H505.7z"/>
			<path class="st0" d="M562.8,77.4l-2.4,4.8c-0.8-0.3-1.7-0.4-2.8-0.4c-3,0-5.5,1-7.4,3c-1.9,2-2.9,4.4-2.9,7.2v25.5h-5.4v-40
				l4.5,3.6c3-3.1,6.7-4.7,11.2-4.7C559.5,76.4,561.2,76.7,562.8,77.4z"/>
			<path class="st0" d="M600.8,104.9l4.7,2.6c-1.8,3.3-4.3,6-7.6,8.1s-7,3.1-11,3.1c-5.7,0-10.7-2.1-14.9-6.3
				c-4.2-4.2-6.3-9.1-6.3-14.9c0-5.9,2.1-10.9,6.3-15c4.2-4.1,9.1-6.2,14.9-6.2c3.7,0,7.1,0.9,10.3,2.7c3.2,1.8,5.7,4.1,7.5,7
				l-27.3,24.1c2.7,2.1,5.9,3.1,9.5,3.1c3,0,5.7-0.8,8.2-2.3C597.5,109.6,599.4,107.5,600.8,104.9z M573.7,106.4l23.4-20.8
				c-2.9-2.5-6.4-3.8-10.3-3.8c-4.4,0-8.2,1.5-11.2,4.6s-4.6,6.8-4.6,11.2C571.1,100.7,572,103.7,573.7,106.4z"/>
			<path class="st0" d="M644.9,112.1c-4.2,4.4-9.3,6.6-15.3,6.6c-5.7,0-10.7-2.1-14.9-6.3c-4.2-4.2-6.3-9.1-6.3-14.9
				c0-5.9,2.1-10.9,6.3-15c4.2-4.1,9.1-6.2,14.9-6.2c5.9,0,11,2.2,15.3,6.6l5.9-5.5v40L644.9,112.1z M629.7,81.8
				c-4.4,0-8.2,1.5-11.2,4.6s-4.6,6.8-4.6,11.2c0,4.4,1.5,8.2,4.6,11.2s6.8,4.6,11.2,4.6c4.4,0,8.1-1.5,11.2-4.6
				c3.1-3.1,4.6-6.8,4.6-11.2c0-4.4-1.5-8.1-4.6-11.2C637.7,83.3,634,81.8,629.7,81.8z"/>
			<path class="st0" d="M682.6,117.5h-6.6l-14-20.1v20.1h-5.4V50.9h5.4v45.1l11.5-18.6h6.4L668,96.7L682.6,117.5z"/>
		</g>
		<g class="st1">
			<path class="st2" d="M525.8,74.9c3.5,2,6.3,4.7,8.4,8.2c2.2,3.5,3.2,7.4,3.2,11.7c0,4.1-1,7.9-3,11.4c-2,3.5-4.8,6.3-8.3,8.3
				c-3.5,2-7.3,3-11.4,3h-14.4v-40h-8.1l3.2-5.5h4.9v-21H518c3.7,0,6.8,1.3,9.3,3.9c2.6,2.6,3.9,5.7,3.9,9.4
				C531.3,68.8,529.4,72.3,525.8,74.9z M505.7,72.1H518c2.3,0,4.2-0.8,5.7-2.4c1.4-1.6,2.2-3.4,2.2-5.4c0-2.3-0.8-4.3-2.3-5.7
				c-1.5-1.5-3.4-2.2-5.5-2.2h-12.3V72.1z M505.7,77.5v34.7h9c5,0,9.1-1.7,12.4-5.2c3.3-3.5,4.9-7.5,4.9-12.1c0-3.3-0.8-6.3-2.4-8.9
				c-1.6-2.6-3.7-4.7-6.4-6.2c-2.7-1.5-5.5-2.3-8.5-2.3H505.7z"/>
			<path class="st2" d="M562.8,77.4l-2.4,4.8c-0.8-0.3-1.7-0.4-2.8-0.4c-3,0-5.5,1-7.4,3c-1.9,2-2.9,4.4-2.9,7.2v25.5h-5.4v-40
				l4.5,3.6c3-3.1,6.7-4.7,11.2-4.7C559.5,76.4,561.2,76.7,562.8,77.4z"/>
			<path class="st2" d="M600.8,104.9l4.7,2.6c-1.8,3.3-4.3,6-7.6,8.1s-7,3.1-11,3.1c-5.7,0-10.7-2.1-14.9-6.3
				c-4.2-4.2-6.3-9.1-6.3-14.9c0-5.9,2.1-10.9,6.3-15c4.2-4.1,9.1-6.2,14.9-6.2c3.7,0,7.1,0.9,10.3,2.7c3.2,1.8,5.7,4.1,7.5,7
				l-27.3,24.1c2.7,2.1,5.9,3.1,9.5,3.1c3,0,5.7-0.8,8.2-2.3C597.5,109.6,599.4,107.5,600.8,104.9z M573.7,106.4l23.4-20.8
				c-2.9-2.5-6.4-3.8-10.3-3.8c-4.4,0-8.2,1.5-11.2,4.6s-4.6,6.8-4.6,11.2C571.1,100.7,572,103.7,573.7,106.4z"/>
			<path class="st2" d="M644.9,112.1c-4.2,4.4-9.3,6.6-15.3,6.6c-5.7,0-10.7-2.1-14.9-6.3c-4.2-4.2-6.3-9.1-6.3-14.9
				c0-5.9,2.1-10.9,6.3-15c4.2-4.1,9.1-6.2,14.9-6.2c5.9,0,11,2.2,15.3,6.6l5.9-5.5v40L644.9,112.1z M629.7,81.8
				c-4.4,0-8.2,1.5-11.2,4.6s-4.6,6.8-4.6,11.2c0,4.4,1.5,8.2,4.6,11.2s6.8,4.6,11.2,4.6c4.4,0,8.1-1.5,11.2-4.6
				c3.1-3.1,4.6-6.8,4.6-11.2c0-4.4-1.5-8.1-4.6-11.2C637.7,83.3,634,81.8,629.7,81.8z"/>
			<path class="st2" d="M682.6,117.5h-6.6l-14-20.1v20.1h-5.4V50.9h5.4v45.1l11.5-18.6h6.4L668,96.7L682.6,117.5z"/>
		</g>
		<g class="st1">
			<path class="st0" d="M283,148.2c0-0.4,0.4-0.8,1-1c0.5,0.3,1.3,0.9,2.7,0.9c1.3,0,3-0.5,3-2.4c0-3.8-6.9-6.1-6.9-11.4
				c0-3.1,2-5,5.1-5c1.7,0,3.2,0.6,3.2,1.3c0,0.4-0.4,0.7-0.8,0.9c-0.6-0.4-1.4-0.6-2.3-0.6c-0.8,0-3.1,0.3-3.1,3.4
				c0,4.6,6.9,7,6.9,11.4c0,3.3-3.4,4.1-5.3,4.1C285,149.8,283,149.2,283,148.2z"/>
			<path class="st0" d="M296.1,142.9c0.2,3.6,1.1,5.5,3.2,5.5c1.1,0,1.8-0.6,2-1.3c0.2-0.1,0.4-0.2,0.7-0.2c0.5,0,0.8,0.2,0.8,0.7
				c0,0.4-0.2,0.7-0.6,1.1c-0.6,0.5-1.5,1-3.2,1c-3.8,0-5-3.4-5-8.1c0-4.9,1.8-7.7,4.5-7.7c2.7,0,4,2.5,4,7.5c0,0.4-0.1,1.1-0.3,1.4
				C300.6,142.9,298.2,142.8,296.1,142.9z M296.1,141.5c1.6,0,3.3,0,4.7-0.1c0-3.9-0.9-5.9-2.2-5.9
				C297.2,135.5,296.2,137.2,296.1,141.5z"/>
			<path class="st0" d="M308.3,149.5c-0.3,0.1-0.9,0.2-1.4,0.2c-0.6,0-1-0.2-1-0.8c0-4.8,0.2-9.8-0.1-14.7c0.2-0.1,0.5-0.3,1.1-0.3
				c0.6,0,1.2,0.3,1.2,0.9c-0.1,1.2-0.2,2.5-0.2,3.7c0.7-2.2,2.5-4.6,4.6-4.6c1.8,0,2.5,1.2,2.6,3.2c0,0.4-0.4,0.8-1.1,0.8
				c-0.5,0-0.9-0.2-1.1-0.4c-0.1-1.4-0.4-1.7-1.1-1.7c-1.8,0-3.6,3.1-3.7,5.4C307.9,143.9,308.1,147.2,308.3,149.5z"/>
			<path class="st0" d="M320.7,149.1c-1.8-5.1-3.1-9.9-4.6-14.9c0.3-0.1,0.8-0.2,1.2-0.2c0.5,0,1,0.2,1.2,0.7
				c1.2,4.2,2.3,8.1,3.5,12c1-3.7,2.9-9.8,3.4-12.6c0.2-0.1,0.5-0.1,0.9-0.1c0.6,0,1,0.4,1,0.7c0,0.2,0,0.4-0.1,0.6
				c-1.2,4.8-3.3,9.8-4.2,14.3c-0.4,0.2-0.7,0.2-1.1,0.2C321.4,149.8,320.8,149.6,320.7,149.1z"/>
			<path class="st0" d="M329.8,149c0.2-4.8,0-10.9,0.1-14.9c0.2-0.1,0.5-0.2,1-0.2c0.5,0,1,0.2,1,0.7c-0.2,4.3-0.2,10.4-0.1,15
				c-0.2,0.1-0.4,0.2-0.9,0.2C330.4,149.7,329.7,149.5,329.8,149z M330.1,131.1c0-0.7,0-1.4,0-2.2c0.2-0.1,0.6-0.2,1-0.2
				c0.5,0,1,0.2,1,0.6c0,0.7,0,1.6,0,2.3c-0.3,0.1-0.7,0.2-1.1,0.2C330.4,131.9,330,131.6,330.1,131.1z"/>
			<path class="st0" d="M335.1,141.3c0-4.9,1.7-7.4,4.8-7.4c0.9,0,2.2,0.3,2.2,1c0,0.5-0.4,0.7-0.7,0.8c-0.5-0.2-0.9-0.2-1.5-0.2
				c-1.9,0-2.8,1.9-2.8,6c0,4.3,1.1,6.7,3.1,6.7c0.7,0,1.1-0.1,1.7-0.3c0.4,0.1,0.6,0.3,0.6,0.8c0,0.6-1.1,1.1-2.3,1.1
				C336.7,149.7,335.1,146.4,335.1,141.3z"/>
			<path class="st0" d="M344.9,149c0.2-4.8,0-10.9,0.1-14.9c0.2-0.1,0.5-0.2,1-0.2c0.5,0,1,0.2,1,0.7c-0.2,4.3-0.2,10.4-0.1,15
				c-0.2,0.1-0.4,0.2-0.9,0.2C345.6,149.7,344.8,149.5,344.9,149z M345.2,131.1c0-0.7,0-1.4,0-2.2c0.2-0.1,0.6-0.2,1-0.2
				c0.5,0,1,0.2,1,0.6c0,0.7,0,1.6,0,2.3c-0.3,0.1-0.7,0.2-1.1,0.2C345.6,131.9,345.2,131.6,345.2,131.1z"/>
			<path class="st0" d="M350.3,141.7c0-5.2,1.7-7.8,4.9-7.8c2.7,0.1,4.5,2.7,4.5,7.3c0,6.3-2.3,8.4-4.5,8.4
				C352.3,149.7,350.3,147.2,350.3,141.7z M352.3,141.7c0,4.1,1,6.4,2.7,6.5c1.5,0,2.6-2.4,2.6-6.9c0-3.5-0.9-5.7-2.6-5.7
				C353.3,135.6,352.3,137.7,352.3,141.7z"/>
			<path class="st0" d="M373.7,147.6c-0.7,1.3-1.7,2.1-3,2.1c-1.7,0-3.8-1.7-3.8-7.5c0-5.9,1.3-8.2,4-8.2c1.4,0,2.3,0.9,2.9,2.2
				c-0.1-3-0.2-5.9-0.3-8c0.3-0.1,0.7-0.2,1.3-0.2c0.6,0,1,0.3,1,0.8c0,6.6-0.1,16,0.2,20.8c-0.4,0.2-0.7,0.3-1.2,0.3
				c-0.5,0-1.1-0.1-1.1-0.6C373.5,148.9,373.6,148.2,373.7,147.6z M373.7,137.7c-0.6-1.1-1.6-2.1-2.6-2.1c-1.5,0-2.2,2.1-2.2,6.1
				c0,4.6,1.3,6.3,2.5,6.3c0.9,0,2.1-1,2.2-2.8C373.7,142.8,373.7,140.2,373.7,137.7z"/>
			<path class="st0" d="M380.7,142.9c0.2,3.6,1.1,5.5,3.2,5.5c1.1,0,1.8-0.6,2-1.3c0.2-0.1,0.4-0.2,0.7-0.2c0.5,0,0.8,0.2,0.8,0.7
				c0,0.4-0.2,0.7-0.6,1.1c-0.6,0.5-1.5,1-3.2,1c-3.8,0-5-3.4-5-8.1c0-4.9,1.8-7.7,4.5-7.7c2.7,0,4,2.5,4,7.5c0,0.4-0.1,1.1-0.3,1.4
				C385.1,142.9,382.7,142.8,380.7,142.9z M380.7,141.5c1.6,0,3.3,0,4.7-0.1c0-3.9-0.9-5.9-2.2-5.9
				C381.8,135.5,380.7,137.2,380.7,141.5z"/>
			<path class="st0" d="M394.6,141.3c0-4.9,1.7-7.4,4.8-7.4c0.9,0,2.2,0.3,2.2,1c0,0.5-0.4,0.7-0.7,0.8c-0.5-0.2-0.9-0.2-1.5-0.2
				c-1.9,0-2.8,1.9-2.8,6c0,4.3,1.1,6.7,3.1,6.7c0.7,0,1.1-0.1,1.7-0.3c0.4,0.1,0.6,0.3,0.6,0.8c0,0.6-1.1,1.1-2.3,1.1
				C396.2,149.7,394.6,146.4,394.6,141.3z"/>
			<path class="st0" d="M403.7,141.7c0-5.2,1.7-7.8,4.9-7.8c2.7,0.1,4.5,2.7,4.5,7.3c0,6.3-2.3,8.4-4.5,8.4
				C405.7,149.7,403.7,147.2,403.7,141.7z M405.8,141.7c0,4.1,1,6.4,2.7,6.5c1.5,0,2.6-2.4,2.6-6.9c0-3.5-0.9-5.7-2.6-5.7
				C406.7,135.6,405.8,137.7,405.8,141.7z"/>
			<path class="st0" d="M417.3,148.9c0.1-4.4,0-8.9-0.2-13.4c-0.5,0-1,0-1.2,0c-0.8,0-1.1-0.3-1.1-0.7c0-0.4,0.1-0.6,0.4-0.8
				c0.4,0,1,0,1.8,0c0-4.4,1.9-5.8,4.7-5.8c1.2,0,2,0.2,2.6,0.4c0.5,0.2,0.6,0.5,0.6,0.7c0,0.4-0.4,0.8-0.8,1
				c-0.7-0.3-1.3-0.5-2.2-0.5c-1.9,0-2.8,0.9-2.9,4.2c2,0,4.5,0,6.7,0c-0.1-4.6,1.8-6.2,4.7-6.2c1.2,0,2.1,0.2,2.7,0.6
				c0.5,0.3,0.6,0.5,0.6,0.8c0,0.4-0.3,0.7-0.7,0.8c-0.6-0.4-1.5-0.7-2.5-0.7c-1.8,0-2.6,1-2.7,4.6c1.3,0,2.3,0,2.8,0
				c0.5,0,0.8,0.3,0.8,0.7c0,0.4-0.2,0.6-0.4,0.8c-0.5,0-1.8,0-3.2,0c0,4.5,0.1,10.1,0.3,14c-0.3,0.2-0.7,0.3-1.2,0.3
				c-0.5,0-0.9-0.2-0.9-0.8c0-4.4-0.1-8.9-0.2-13.5c-2.3,0-4.7,0-6.7,0c0,4.5,0.1,10.1,0.3,14c-0.3,0.2-0.7,0.3-1.2,0.3
				S417.3,149.5,417.3,148.9z"/>
			<path class="st0" d="M434.7,142.9c0.2,3.6,1.1,5.5,3.2,5.5c1.1,0,1.8-0.6,2-1.3c0.2-0.1,0.4-0.2,0.7-0.2c0.5,0,0.8,0.2,0.8,0.7
				c0,0.4-0.2,0.7-0.6,1.1c-0.6,0.5-1.5,1-3.2,1c-3.8,0-5-3.4-5-8.1c0-4.9,1.8-7.7,4.5-7.7c2.7,0,4,2.5,4,7.5c0,0.4-0.1,1.1-0.3,1.4
				C439.1,142.9,436.7,142.8,434.7,142.9z M434.6,141.5c1.6,0,3.3,0,4.7-0.1c0-3.9-0.9-5.9-2.2-5.9
				C435.8,135.5,434.7,137.2,434.6,141.5z"/>
			<path class="st0" d="M445.8,142.9c0.2,3.6,1.1,5.5,3.2,5.5c1.1,0,1.8-0.6,2-1.3c0.2-0.1,0.4-0.2,0.7-0.2c0.5,0,0.8,0.2,0.8,0.7
				c0,0.4-0.2,0.7-0.6,1.1c-0.6,0.5-1.5,1-3.2,1c-3.8,0-5-3.4-5-8.1c0-4.9,1.8-7.7,4.5-7.7c2.7,0,4,2.5,4,7.5c0,0.4-0.1,1.1-0.3,1.4
				C450.3,142.9,447.9,142.8,445.8,142.9z M445.8,141.5c1.6,0,3.3,0,4.7-0.1c0-3.9-0.9-5.9-2.2-5.9
				C446.9,135.5,445.9,137.2,445.8,141.5z"/>
			<path class="st0" d="M500.1,135.3c0.7-0.9,1.6-1.5,2.7-1.5c3.1,0,3.9,4.4,3.9,8.1c0,5.2-1.9,7.9-5.1,7.9c-1.4,0-2.7-0.5-3.5-1
				c0.4-4.2-0.2-16.7,0-20.6c0.4-0.2,0.7-0.3,1.2-0.3c0.6,0,1.1,0.2,1.1,0.7C500.2,130.7,500.1,133,500.1,135.3z M500.1,137.1
				c0,4.2,0.1,8.2,0,10.7c0.4,0.2,0.8,0.4,1.5,0.4c1.8,0,3.1-2.2,3.1-6.3c0-2.8-0.5-6.4-2.3-6.4
				C501.6,135.5,500.7,136.1,500.1,137.1z"/>
			<path class="st0" d="M512.2,149.5c-0.3,0.1-0.9,0.2-1.4,0.2c-0.6,0-1-0.2-1-0.8c0-4.8,0.2-9.8-0.1-14.7c0.2-0.1,0.5-0.3,1.1-0.3
				c0.6,0,1.2,0.3,1.2,0.9c-0.1,1.2-0.2,2.5-0.2,3.7c0.7-2.2,2.5-4.6,4.6-4.6c1.8,0,2.5,1.2,2.6,3.2c0,0.4-0.4,0.8-1.1,0.8
				c-0.5,0-0.9-0.2-1.1-0.4c-0.1-1.4-0.4-1.7-1.1-1.7c-1.8,0-3.6,3.1-3.7,5.4C511.8,143.9,512,147.2,512.2,149.5z"/>
			<path class="st0" d="M522.4,142.9c0.2,3.6,1.1,5.5,3.2,5.5c1.1,0,1.8-0.6,2-1.3c0.2-0.1,0.4-0.2,0.7-0.2c0.5,0,0.8,0.2,0.8,0.7
				c0,0.4-0.2,0.7-0.6,1.1c-0.6,0.5-1.5,1-3.2,1c-3.8,0-5-3.4-5-8.1c0-4.9,1.8-7.7,4.5-7.7c2.7,0,4,2.5,4,7.5c0,0.4-0.1,1.1-0.3,1.4
				C526.8,142.9,524.4,142.8,522.4,142.9z M522.4,141.5c1.6,0,3.3,0,4.7-0.1c0-3.9-0.9-5.9-2.2-5.9
				C523.5,135.5,522.4,137.2,522.4,141.5z"/>
			<path class="st0" d="M538.4,147.1c-0.7,1.5-2,2.6-3.5,2.6c-1.8,0-3.3-1.2-3.3-4.4c0-3.1,2.1-4.9,6.6-4.9c0-1,0-1.8,0-2.1
				c0-1.7-0.8-2.8-2.5-2.8c-1.2,0-1.9,0.5-2.2,1.7c-1,0.2-1.7-0.1-1.7-0.9c0-0.7,0.4-1.1,0.9-1.4c0.6-0.5,1.8-0.9,2.9-0.9
				c2.9,0,4.7,1.3,4.6,3.9c-0.1,1.8,0,10.4,0.1,11.7c-0.3,0.1-0.5,0.2-1,0.2c-0.6,0-1-0.2-1-0.7C538.3,148.9,538.4,148,538.4,147.1z
				 M538.2,141.6c-3.4,0.1-4.8,1.2-4.8,3.7c0,1.8,0.8,2.9,1.9,2.9c1.5,0,2.9-1.7,2.8-3.8C538.2,143.5,538.2,142.5,538.2,141.6z"/>
			<path class="st0" d="M544.7,149.7c-0.7,0-1.1-0.2-1-0.8c0.1-5.6-0.4-14-0.3-20.7c0.2-0.2,0.4-0.4,1.1-0.4c0.7,0,1.1,0.3,1.1,0.8
				c-0.1,5.2-0.1,10.2,0,15.4c2.5-1.4,3.6-3.6,3.6-6c0-1.6-1-2.8-2.7-2.8c-0.1-0.1-0.2-0.3-0.2-0.6c0-0.4,0.4-0.7,1.1-0.7
				c2.3,0,3.8,1.8,3.8,4.2c0,2.4-1.8,5.3-4.3,6.6c1.6,0.6,2.6,3.3,3.8,3.3c0.4,0,0.6-0.1,0.8-0.3c0.3,0.1,0.7,0.3,0.7,0.8
				c0,0.7-0.8,1.2-1.8,1.2c-2.5,0-2.8-3.6-4.9-4c0.1,1.1,0.1,2.8,0.1,3.8C545.4,149.6,545.1,149.7,544.7,149.7z"/>
			<path class="st0" d="M561.2,148.1c0,2.6,0.1,5.7,0.3,7.1c-0.3,0.2-0.6,0.3-1.2,0.3c-0.5,0-1-0.3-1-0.8
				c-0.1-4.2,0.2-17.2-0.2-20.6c0.3-0.1,0.7-0.2,1.1-0.2c0.7,0,1.1,0.3,1.1,0.7c0,0.7-0.1,1.4-0.1,2c0.6-1.3,2-2.7,3.5-2.7
				c2.6,0,3.5,2.8,3.5,7.4c0,5.8-1.7,8.4-4.4,8.4C562.7,149.7,561.7,149.2,561.2,148.1z M561.3,145.5c0,1.4,0.9,2.6,2.2,2.6
				c1.8,0,2.7-1.8,2.7-6.7c0-4.8-1.1-5.8-2.1-5.8c-1.2,0-2.8,1.4-2.9,3.3C561.2,141.3,561.3,143.9,561.3,145.5z"/>
			<path class="st0" d="M577.6,147.1c-0.7,1.5-2,2.6-3.5,2.6c-1.8,0-3.3-1.2-3.3-4.4c0-3.1,2.1-4.9,6.6-4.9c0-1,0-1.8,0-2.1
				c0-1.7-0.8-2.8-2.5-2.8c-1.2,0-1.9,0.5-2.2,1.7c-1,0.2-1.7-0.1-1.7-0.9c0-0.7,0.4-1.1,0.9-1.4c0.6-0.5,1.8-0.9,2.9-0.9
				c2.9,0,4.7,1.3,4.6,3.9c-0.1,1.8,0,10.4,0.1,11.7c-0.3,0.1-0.5,0.2-1,0.2c-0.6,0-1-0.2-1-0.7C577.5,148.9,577.5,148,577.6,147.1z
				 M577.4,141.6c-3.4,0.1-4.8,1.2-4.8,3.7c0,1.8,0.8,2.9,1.9,2.9c1.5,0,2.9-1.7,2.8-3.8C577.4,143.5,577.4,142.5,577.4,141.6z"/>
			<path class="st0" d="M585.3,149.5c-0.3,0.1-0.9,0.2-1.4,0.2c-0.6,0-1-0.2-1-0.8c0-4.8,0.2-9.8-0.1-14.7c0.2-0.1,0.5-0.3,1.1-0.3
				c0.6,0,1.2,0.3,1.2,0.9c-0.1,1.2-0.2,2.5-0.2,3.7c0.7-2.2,2.5-4.6,4.6-4.6c1.8,0,2.5,1.2,2.6,3.2c0,0.4-0.4,0.8-1.1,0.8
				c-0.5,0-0.9-0.2-1.1-0.4c-0.1-1.4-0.4-1.7-1.1-1.7c-1.8,0-3.6,3.1-3.7,5.4C584.9,143.9,585.1,147.2,585.3,149.5z"/>
			<path class="st0" d="M600.2,147.1c-0.7,1.5-2,2.6-3.5,2.6c-1.8,0-3.3-1.2-3.3-4.4c0-3.1,2.1-4.9,6.6-4.9c0-1,0-1.8,0-2.1
				c0-1.7-0.8-2.8-2.5-2.8c-1.2,0-1.9,0.5-2.2,1.7c-1,0.2-1.7-0.1-1.7-0.9c0-0.7,0.4-1.1,0.9-1.4c0.6-0.5,1.8-0.9,2.9-0.9
				c2.9,0,4.7,1.3,4.6,3.9c-0.1,1.8,0,10.4,0.1,11.7c-0.3,0.1-0.5,0.2-1,0.2c-0.6,0-1-0.2-1-0.7C600.1,148.9,600.1,148,600.2,147.1z
				 M600,141.6c-3.4,0.1-4.8,1.2-4.8,3.7c0,1.8,0.8,2.9,1.9,2.9c1.5,0,2.9-1.7,2.8-3.8C600,143.5,600,142.5,600,141.6z"/>
			<path class="st0" d="M611.6,142.9c0.2,3.6,1.1,5.5,3.2,5.5c1.1,0,1.8-0.6,2-1.3c0.2-0.1,0.4-0.2,0.7-0.2c0.5,0,0.8,0.2,0.8,0.7
				c0,0.4-0.2,0.7-0.6,1.1c-0.6,0.5-1.5,1-3.2,1c-3.8,0-5-3.4-5-8.1c0-4.9,1.8-7.7,4.5-7.7c2.7,0,4,2.5,4,7.5c0,0.4-0.1,1.1-0.3,1.4
				C616,142.9,613.6,142.8,611.6,142.9z M611.6,141.5c1.6,0,3.3,0,4.7-0.1c0-3.9-0.9-5.9-2.2-5.9
				C612.7,135.5,611.6,137.2,611.6,141.5z"/>
			<path class="st0" d="M624.6,149.1c-1.8-5.1-3.1-9.9-4.6-14.9c0.3-0.1,0.8-0.2,1.2-0.2c0.5,0,1,0.2,1.2,0.7
				c1.2,4.2,2.3,8.1,3.5,12c1-3.7,2.9-9.8,3.4-12.6c0.2-0.1,0.5-0.1,0.9-0.1c0.6,0,1,0.4,1,0.7c0,0.2,0,0.4-0.1,0.6
				c-1.2,4.8-3.3,9.8-4.2,14.3c-0.4,0.2-0.7,0.2-1.1,0.2C625.3,149.8,624.7,149.6,624.6,149.1z"/>
			<path class="st0" d="M634.7,142.9c0.2,3.6,1.1,5.5,3.2,5.5c1.1,0,1.8-0.6,2-1.3c0.2-0.1,0.4-0.2,0.7-0.2c0.5,0,0.8,0.2,0.8,0.7
				c0,0.4-0.2,0.7-0.6,1.1c-0.6,0.5-1.5,1-3.2,1c-3.8,0-5-3.4-5-8.1c0-4.9,1.8-7.7,4.5-7.7c2.7,0,4,2.5,4,7.5c0,0.4-0.1,1.1-0.3,1.4
				C639.2,142.9,636.8,142.8,634.7,142.9z M634.7,141.5c1.6,0,3.3,0,4.7-0.1c0-3.9-0.9-5.9-2.2-5.9
				C635.8,135.5,634.8,137.2,634.7,141.5z"/>
			<path class="st0" d="M646.6,137.9c0.7-2.3,2.5-3.9,4.3-3.9c1.8,0,2.9,1.6,2.9,3.7c0,3.7-0.2,8.3,0,11.7c-0.2,0.2-0.5,0.4-1.1,0.4
				c-0.5,0-1.1-0.2-1.1-0.8c0-3.8,0.2-6.3,0.1-10.2c0-1.8-0.6-2.9-1.8-2.9c-1.5,0-3.2,2.6-3.3,5.2c0,2.6,0.1,5.9,0.2,8.4
				c-0.2,0.2-0.6,0.3-1.1,0.3c-0.8,0-1.1-0.4-1.1-0.7c0-4.8-0.1-10-0.4-14.8c0.2-0.1,0.5-0.3,1.2-0.3c0.7,0,1.1,0.4,1,0.9
				C646.6,135.6,646.6,136.8,646.6,137.9z"/>
			<path class="st0" d="M660.5,135.5c-0.1,3.3-0.3,6.8-0.2,9.9c0.1,1.8,0.7,2.7,1.9,2.7c0.6,0,1.3-0.1,1.8-0.3
				c0.2,0.2,0.4,0.5,0.4,0.9c0,0.7-1,1.1-2.3,1.1c-2.6,0-3.8-1.6-3.8-4.3c0-3.2,0.1-6.6,0.1-9.9c-0.6,0-1.2,0-1.8,0
				c-0.6,0-0.9-0.3-0.9-0.7c0-0.4,0.3-0.8,0.4-0.8c0.7,0,1.5,0,2.3,0c0-1.5,0-3-0.1-4.4c0.3-0.1,0.6-0.2,1.1-0.2
				c0.7,0,0.9,0.2,1,0.7c0.1,1.3,0.1,2.6,0.1,3.9c1.1,0,2.1,0,3,0c0.6,0,0.9,0.3,0.9,0.7c0,0.4-0.2,0.6-0.3,0.8
				C663.1,135.5,661.8,135.5,660.5,135.5z"/>
			<path class="st0" d="M666.2,141.7c0-5.2,1.7-7.8,4.9-7.8c2.7,0.1,4.5,2.7,4.5,7.3c0,6.3-2.3,8.4-4.5,8.4
				C668.2,149.7,666.2,147.2,666.2,141.7z M668.2,141.7c0,4.1,1,6.4,2.7,6.5c1.5,0,2.6-2.4,2.6-6.9c0-3.5-0.9-5.7-2.6-5.7
				C669.2,135.6,668.2,137.7,668.2,141.7z"/>
			<path class="st0" d="M678.3,148.9c-0.3-0.2-0.5-0.6-0.5-0.9c0-0.4,0.4-0.8,0.9-0.8c0.5,0.3,1.4,1,2.8,1c1.6,0,2.5-0.9,2.5-2.2
				c0-2.5-5.9-4.5-5.9-8.1c0-2.5,1.7-4,4.2-4c1,0,2,0.2,2.7,0.7c0.3,0.2,0.6,0.5,0.6,1c0,0.5-0.5,0.8-1.1,0.8c-0.4-0.4-1.2-1-2.4-1
				c-1.3,0-2.1,1-2.1,2.2c0,3.1,6,4.9,6,8.2c0,2.2-2.1,3.8-4.6,3.8C680,149.7,679,149.4,678.3,148.9z"/>
		</g>
	</g>
</g>
</svg>
