<svg width="503.012" height="141.73" xmlns="http://www.w3.org/2000/svg">

 <g>
  <title>background</title>
  <rect fill="none" id="canvas_background" height="402" width="582" y="-1" x="-1"/>
 </g>
 <g>
  <title>Layer 1</title>
  <g id="svg_1">
   <path stroke="#c1c12c" stroke-dasharray="5,5" stroke-width="0" id="svg_2" d="m172.827,110.242c-3.11,-5.125 -7.374,-7.439 -13.005,-6.041c-5.405,1.342 -8.079,5.234 -8.569,10.745c-2.8,0 -5.605,0 -8.468,0c-0.111,-3.193 -1.29,-5.9 -3.661,-8.038c-1.775,-1.601 -3.878,-2.5 -6.253,-2.733c-3.945,-0.387 -8.826,1.473 -11.192,6.858c-0.223,-0.206 -0.429,-0.384 -0.623,-0.575c-3.357,-3.312 -6.095,-7.093 -8.353,-11.217c-0.531,-0.97 -1.176,-1.339 -2.274,-1.316c-2.96,0.063 -5.922,0.05 -8.882,0.016c-10.062,-0.115 -17.898,-8.831 -16.968,-18.849c0.778,-8.382 7.574,-14.982 15.995,-15.532c0.619,-0.04 1.24,-0.068 1.86,-0.073c0.638,-0.005 0.876,-0.318 0.895,-0.936c0.031,-1.046 -0.016,-2.12 0.208,-3.129c0.61,-2.759 2.938,-4.724 5.767,-5.005c0.64,-0.064 1.287,-0.093 1.93,-0.093c17.408,-0.005 34.816,-0.004 52.224,-0.004c6.304,0 12.608,-0.018 18.912,0.017c1.038,0.006 2.113,0.111 3.105,0.398c2.664,0.771 4.522,3.129 4.523,5.891c0.005,15.15 -3.09,29.478 -11.579,42.293c-1.535,2.317 -3.428,4.397 -5.149,6.592c-0.16,0.205 -0.273,0.447 -0.443,0.731zm-68.373,-19.197c0.003,-0.034 0.005,-0.068 0.008,-0.101c1.122,0 2.243,-0.011 3.365,0.004c0.595,0.008 0.775,-0.26 0.618,-0.805c-0.059,-0.206 -0.128,-0.409 -0.186,-0.616c-1.135,-4.036 -2.331,-8.056 -3.374,-12.116c-0.479,-1.862 -0.655,-3.801 -0.974,-5.705c-0.157,-0.934 -0.414,-1.205 -1.363,-1.195c-0.926,0.01 -1.864,0.062 -2.772,0.228c-4.691,0.859 -8.164,5.031 -8.229,9.827c-0.065,4.809 3.324,9.163 8.003,10.082c1.597,0.316 3.266,0.276 4.904,0.397z" fill="#000000"/>
   <path stroke="#c1c12c" stroke-dasharray="5,5" stroke-width="0" id="svg_3" d="m361.958,97.651c0,-9.397 0,-18.723 0,-28.136c-2.115,0 -4.181,0 -6.393,0c0.184,-0.348 0.292,-0.573 0.419,-0.788c0.847,-1.439 1.721,-2.862 2.534,-4.319c0.274,-0.491 0.591,-0.662 1.135,-0.629c0.734,0.045 1.473,0.011 2.277,0.011c0,-4.948 0,-9.831 0,-14.75c0.22,-0.029 0.377,-0.068 0.535,-0.068c4.416,-0.002 8.834,-0.082 13.248,0.025c4.115,0.1 7.176,2.147 8.904,5.832c1.716,3.658 1.387,7.285 -1.039,10.616c-0.307,0.422 -0.69,0.788 -1.093,1.242c0.195,0.15 0.393,0.297 0.586,0.45c5.64,4.454 7.994,10.266 6.464,17.273c-1.51,6.92 -6.021,11.196 -12.909,12.888c-0.987,0.242 -2.029,0.348 -3.047,0.36c-3.699,0.043 -7.4,0.02 -11.1,0.02c-0.139,0.001 -0.279,-0.013 -0.521,-0.027zm5.68,-5.734c2.477,0 4.913,0.256 7.275,-0.052c5.311,-0.693 9.332,-5.479 9.404,-10.825c0.075,-5.603 -3.686,-10.392 -9.116,-11.272c-2.217,-0.359 -4.518,-0.179 -6.779,-0.288c-0.669,-0.032 -0.835,0.188 -0.833,0.839c0.022,6.97 0.013,13.94 0.015,20.909c0,0.254 0.025,0.509 0.034,0.689zm0.002,-28.09c0.247,0.015 0.434,0.035 0.621,0.036c2.34,0.002 4.68,-0.041 7.019,0.011c3.292,0.074 5.318,-3.067 4.517,-5.986c-0.555,-2.02 -2.258,-3.249 -4.655,-3.277c-2.268,-0.027 -4.536,0.015 -6.804,-0.021c-0.619,-0.01 -0.752,0.208 -0.746,0.781c0.027,2.578 0.011,5.157 0.013,7.735c-0.001,0.232 0.021,0.465 0.035,0.721z" fill="#000000"/>
   <path stroke="#c1c12c" stroke-dasharray="5,5" stroke-width="0" id="svg_4" d="m464.884,71.109c1.639,-1.523 3.241,-3.012 4.94,-4.591c0,10.807 0,21.477 0,32.28c-1.688,-1.54 -3.299,-3.01 -4.963,-4.529c-4.025,3.635 -8.718,4.935 -13.997,3.927c-3.898,-0.744 -6.964,-2.901 -9.388,-5.988c-4.684,-5.966 -4.245,-14.499 0.841,-20.12c5.88,-6.497 16.381,-7.026 22.567,-0.979zm-10.863,1.433c-5.821,0.023 -10.168,4.414 -10.133,10.236c0.035,5.779 4.426,10.119 10.207,10.087c5.708,-0.032 10.181,-4.521 10.16,-10.197c-0.019,-5.674 -4.543,-10.149 -10.234,-10.126z" fill="#000000"/>
   <path stroke="#c1c12c" stroke-dasharray="5,5" stroke-width="0" id="svg_5" d="m437.637,74.837c-6.287,5.536 -12.554,11.056 -18.923,16.664c2.746,1.533 5.536,1.761 8.403,0.86c2.924,-0.919 4.893,-2.957 6.193,-5.765c1.668,0.937 3.277,1.84 4.879,2.74c-1.95,4.734 -8.023,10.17 -16.549,9.041c-6.977,-0.924 -13.023,-7.26 -13.521,-14.208c-0.552,-7.712 4.038,-14.498 11.257,-16.643c6.923,-2.058 14.853,1.089 18.261,7.311zm-22.71,12.583c4.906,-4.346 9.803,-8.683 14.707,-13.027c-2.601,-2.26 -8.616,-2.827 -12.495,0.594c-4.276,3.772 -3.964,9.62 -2.212,12.433z" fill="#000000"/>
   <path stroke="#c1c12c" stroke-dasharray="5,5" stroke-width="0" id="svg_6" d="m472.209,97.628c0,-16.2 0,-32.376 0,-48.605c1.852,0 3.697,0 5.626,0c0,9.689 0,19.364 0,29.039c0.046,0.014 0.091,0.028 0.137,0.042c0.14,-0.204 0.288,-0.403 0.418,-0.613c1.905,-3.085 3.816,-6.167 5.699,-9.265c0.271,-0.446 0.572,-0.601 1.086,-0.593c1.928,0.03 3.856,0.012 5.91,0.012c-0.176,0.315 -0.289,0.536 -0.419,0.747c-2.694,4.364 -5.383,8.731 -8.097,13.083c-0.272,0.436 -0.257,0.72 0.035,1.134c3.342,4.738 6.663,9.491 9.99,14.24c0.161,0.23 0.318,0.462 0.535,0.778c-0.296,0.022 -0.495,0.049 -0.695,0.05c-1.79,0.003 -3.581,-0.018 -5.371,0.014c-0.555,0.01 -0.896,-0.15 -1.221,-0.621c-2.437,-3.536 -4.907,-7.05 -7.368,-10.57c-0.157,-0.224 -0.327,-0.439 -0.617,-0.826c0,4.106 0,8.004 0,11.953c-1.922,0.001 -3.766,0.001 -5.648,0.001z" fill="#000000"/>
   <path stroke="#c1c12c" stroke-dasharray="5,5" stroke-width="0" id="svg_7" d="m243.189,83.565c0,4.399 0,8.756 0,13.152c-1.285,0 -2.489,0 -3.751,0c0,-4.387 0,-8.727 0,-13.177c-1.629,0 -3.206,0 -4.924,0c0.766,-1.283 1.434,-2.432 2.144,-3.553c0.093,-0.147 0.401,-0.211 0.613,-0.22c0.685,-0.027 1.372,-0.01 2.157,-0.01c0,-0.356 0,-0.634 0,-0.912c0,-5.827 -0.006,-11.653 0.002,-17.48c0.009,-6.353 4.432,-11.436 10.721,-12.338c6.771,-0.971 13.577,4.649 13.63,11.467c0.094,11.939 0.033,23.88 0.035,35.82c0,0.117 -0.025,0.235 -0.043,0.4c-1.215,0 -2.419,0 -3.708,0c0,-4.387 0,-8.744 0,-13.15c-5.637,0.001 -11.19,0.001 -16.876,0.001zm16.835,-3.85c0.017,-0.235 0.035,-0.376 0.035,-0.518c0.001,-6.015 0.006,-12.029 -0.007,-18.044c-0.001,-0.593 -0.059,-1.196 -0.179,-1.777c-0.85,-4.115 -4.71,-6.944 -8.858,-6.665c-4.856,0.327 -7.8,4.472 -7.821,8.205c-0.034,6.11 -0.01,12.22 -0.007,18.33c0,0.157 0.05,0.313 0.077,0.468c5.6,0.001 11.152,0.001 16.76,0.001z" fill="#000000"/>
   <path stroke="#c1c12c" stroke-dasharray="5,5" stroke-width="0" id="svg_8" d="m300.05,53.67c-1.95,0 -3.755,0 -5.686,0c0.742,-1.233 1.419,-2.375 2.121,-3.501c0.082,-0.131 0.307,-0.245 0.465,-0.244c3.89,0.041 7.817,-0.226 11.662,0.219c8.672,1.004 14.978,5.674 18.54,13.613c6.249,13.926 -2.173,29.969 -17.363,32.652c-3.198,0.565 -6.423,0.281 -9.739,0.363c0,-14.377 0,-28.685 0,-43.102zm3.786,-0.006c0,13.167 0,26.211 0,39.293c7.889,0.36 14.299,-2.373 18.506,-9.121c4.368,-7.007 4.229,-14.273 -0.166,-21.217c-4.202,-6.638 -10.629,-9.144 -18.34,-8.955z" fill="#000000"/>
   <path stroke="#c1c12c" stroke-dasharray="5,5" stroke-width="0" id="svg_9" d="m268.119,49.263c6.393,11.271 12.786,22.542 19.178,33.813c0.044,-0.01 0.089,-0.02 0.133,-0.03c0,-11.007 0,-22.014 0,-33.077c1.28,0 2.48,0 3.739,0c0,15.775 0,31.536 0,47.297c-0.039,0.017 -0.078,0.035 -0.118,0.052c-6.366,-11.201 -12.731,-22.401 -19.097,-33.602c-0.06,0.003 -0.121,0.005 -0.181,0.008c0,0.261 0,0.521 0,0.782c0,10.434 0,20.869 0,31.303c0,0.955 -0.001,0.956 -0.973,0.956c-0.924,0 -1.849,0 -2.798,0c0,-15.877 0,-31.656 0,-47.435c0.04,-0.023 0.079,-0.045 0.117,-0.067z" fill="#000000"/>
   <path stroke="#c1c12c" stroke-dasharray="5,5" stroke-width="0" id="svg_10" d="m211.059,96.712c-1.314,0 -2.538,0 -3.821,0c0,-9.38 0,-18.708 0,-28.099c-1.885,0 -3.714,0 -5.734,0c0.415,-0.705 0.753,-1.288 1.1,-1.867c0.392,-0.654 0.648,-1.56 1.228,-1.883c0.606,-0.338 1.525,-0.116 2.308,-0.133c0.33,-0.007 0.661,-0.001 1.073,-0.001c0,-4.932 0,-9.812 0,-14.754c1.303,0 2.523,0 3.827,0c0,4.915 0,9.797 0,14.716c5.539,0 10.996,0 16.541,0c0,-4.897 0,-9.776 0,-14.717c1.307,0 2.528,0 3.786,0c0,15.575 0,31.113 0,46.721c-1.216,0 -2.437,0 -3.751,0c0,-9.352 0,-18.695 0,-28.077c-5.551,0 -11.008,0 -16.556,0c-0.001,9.354 -0.001,18.698 -0.001,28.094z" fill="#000000"/>
   <path stroke="#c1c12c" stroke-dasharray="5,5" stroke-width="0" id="svg_11" d="m147.139,50.003c-0.196,-0.416 -0.333,-0.658 -0.427,-0.917c-0.498,-1.365 -1.002,-2.728 -1.474,-4.103c-0.816,-2.377 -2.338,-4.166 -4.429,-5.528c-4.077,-2.655 -8.177,-5.278 -12.181,-8.039c-1.696,-1.17 -3.248,-2.579 -4.735,-4.014c-2.404,-2.319 -3.112,-5.186 -2.231,-8.399c0.44,-1.606 1.006,-3.177 1.528,-4.76c0.071,-0.214 0.22,-0.402 0.397,-0.715c0.162,0.289 0.284,0.455 0.355,0.641c1.469,3.858 3.822,6.93 7.382,9.18c4.474,2.827 8.794,5.897 13.161,8.892c2.592,1.777 4.448,4.107 5.036,7.271c0.329,1.768 0.096,3.528 -0.423,5.232c-0.465,1.525 -1.028,3.02 -1.558,4.525c-0.069,0.195 -0.199,0.368 -0.401,0.734z" fill="#000000"/>
   <path stroke="#c1c12c" stroke-dasharray="5,5" stroke-width="0" id="svg_12" d="m345.058,96.719c-1.273,0 -2.478,0 -3.76,0c0,-0.326 0,-0.607 0,-0.888c0,-6.352 0.008,-12.704 -0.015,-19.055c-0.002,-0.552 -0.12,-1.142 -0.335,-1.651c-3.423,-8.104 -6.871,-16.197 -10.312,-24.293c-0.111,-0.26 -0.211,-0.525 -0.365,-0.908c1.354,0 2.628,-0.024 3.898,0.028c0.17,0.007 0.375,0.378 0.477,0.617c2.709,6.335 5.407,12.674 8.107,19.013c0.128,0.301 0.261,0.599 0.443,1.019c0.145,-0.306 0.237,-0.484 0.314,-0.668c2.72,-6.434 5.446,-12.865 8.146,-19.307c0.229,-0.546 0.508,-0.755 1.102,-0.728c1.069,0.049 2.142,0.014 3.333,0.014c-0.151,0.37 -0.26,0.647 -0.376,0.921c-3.467,8.163 -6.939,16.324 -10.394,24.491c-0.161,0.381 -0.252,0.823 -0.253,1.237c-0.016,6.423 -0.011,12.847 -0.011,19.27c0.001,0.282 0.001,0.563 0.001,0.888z" fill="#000000"/>
   <path stroke="#c1c12c" stroke-dasharray="5,5" stroke-width="0" id="svg_13" d="m396.879,97.66c-1.932,0 -3.744,0 -5.611,0c0,-10.29 0,-20.562 0,-30.976c1.358,1.088 2.648,2.122 3.954,3.168c3.948,-3.2 8.237,-3.808 12.987,-1.843c-0.865,1.697 -1.684,3.303 -2.452,4.809c-1.151,-0.083 -2.233,-0.273 -3.301,-0.217c-2.912,0.154 -5.378,2.675 -5.538,5.595c-0.065,1.191 -0.037,2.387 -0.038,3.58c-0.003,4.99 -0.001,9.98 -0.001,14.971c0,0.283 0,0.565 0,0.913z" fill="#000000"/>
   <path stroke="#c1c12c" stroke-dasharray="5,5" stroke-width="0" id="svg_14" d="m92.492,56.327c-1.515,1.552 -3.005,3.092 -4.519,4.608c-0.157,0.157 -0.459,0.247 -0.69,0.241c-10.431,-0.275 -20.861,-0.573 -31.291,-0.85c-6.516,-0.173 -13.033,-0.332 -19.549,-0.474c-7.806,-0.171 -15.612,-0.311 -23.418,-0.483c-1.192,-0.026 -2.382,-0.146 -3.572,-0.242c-0.236,-0.019 -0.465,-0.126 -0.698,-0.192c0.005,-0.073 0.009,-0.146 0.014,-0.219c0.431,-0.048 0.861,-0.125 1.293,-0.139c4.558,-0.149 9.115,-0.296 13.673,-0.428c9.738,-0.28 19.476,-0.556 29.214,-0.822c7.877,-0.215 15.754,-0.415 23.63,-0.62c4.941,-0.128 9.882,-0.253 14.823,-0.378c0.374,-0.01 0.75,-0.002 1.09,-0.002z" fill="#000000"/>
   <path stroke="#c1c12c" stroke-dasharray="5,5" stroke-width="0" id="svg_15" d="m162.558,124.344c-5.165,-0.001 -9.354,-4.165 -9.357,-9.302c-0.003,-5.155 4.175,-9.344 9.317,-9.342c5.217,0.002 9.403,4.161 9.396,9.339c-0.007,5.142 -4.193,9.306 -9.356,9.305zm-1.038,-4.248c2.273,-0.012 4.091,-1.846 4.077,-4.114c-0.014,-2.223 -1.837,-4.033 -4.076,-4.048c-2.264,-0.015 -4.116,1.827 -4.104,4.082c0.012,2.285 1.829,4.092 4.103,4.08z" fill="#000000"/>
   <path stroke="#c1c12c" stroke-dasharray="5,5" stroke-width="0" id="svg_16" d="m140.873,115.056c-0.01,4.982 -4.053,8.995 -9.048,8.981c-4.972,-0.014 -9.014,-4.078 -8.999,-9.048c0.015,-4.961 4.088,-8.996 9.067,-8.983c4.985,0.013 8.991,4.049 8.98,9.05zm-10.101,-4.36c-2.304,0.003 -4.201,1.876 -4.224,4.17c-0.023,2.309 1.892,4.249 4.214,4.269c2.321,0.02 4.238,-1.889 4.241,-4.225c0.004,-2.343 -1.878,-4.217 -4.231,-4.214z" fill="#000000"/>
   <path stroke="#c1c12c" stroke-dasharray="5,5" stroke-width="0" id="svg_17" d="m139.788,50.245c-0.191,-0.169 -0.393,-0.328 -0.571,-0.51c-0.702,-0.715 -1.427,-1.411 -2.088,-2.163c-1.482,-1.686 -3.385,-2.447 -5.558,-2.789c-4.213,-0.662 -8.419,-1.375 -12.612,-2.149c-1.136,-0.21 -2.221,-0.704 -3.324,-1.084c-2.359,-0.811 -3.749,-2.467 -4.162,-4.913c-0.226,-1.339 -0.374,-2.691 -0.537,-4.039c-0.029,-0.24 0.04,-0.493 0.078,-0.886c0.317,0.26 0.533,0.402 0.708,0.584c2.39,2.495 5.37,3.631 8.751,4.093c3.846,0.526 7.667,1.257 11.484,1.977c1.089,0.205 2.159,0.608 3.18,1.054c2.408,1.051 3.849,2.915 4.273,5.514c0.238,1.458 0.396,2.929 0.577,4.396c0.033,0.271 0.005,0.551 0.005,0.826c-0.069,0.031 -0.136,0.06 -0.204,0.089z" fill="#000000"/>
   <path stroke="#c1c12c" stroke-dasharray="5,5" stroke-width="0" id="svg_18" d="m81.626,71.888c-0.257,1.606 -0.501,3.13 -0.775,4.841c-10.486,-0.568 -21.016,-1.095 -31.54,-1.72c-10.49,-0.624 -21.01,-0.787 -31.478,-1.764c-0.003,-0.1 -0.007,-0.2 -0.01,-0.3c0.444,-0.066 0.886,-0.181 1.331,-0.19c3.509,-0.07 7.018,-0.125 10.527,-0.173c17.046,-0.233 34.092,-0.463 51.138,-0.693c0.259,-0.004 0.519,-0.001 0.807,-0.001z" fill="#000000"/>
   <path stroke="#c1c12c" stroke-dasharray="5,5" stroke-width="0" id="svg_19" d="m115.637,109.712c-0.299,0 -0.555,0.007 -0.81,-0.001c-8.542,-0.268 -17.084,-0.542 -25.626,-0.807c-8.423,-0.261 -16.846,-0.516 -25.269,-0.767c-3.651,-0.109 -7.302,-0.191 -10.952,-0.315c-0.735,-0.025 -1.466,-0.178 -2.197,-0.287c-0.116,-0.017 -0.219,-0.119 -0.322,-0.358c0.499,-0.068 0.996,-0.175 1.497,-0.197c4.316,-0.192 8.634,-0.358 12.95,-0.553c6.82,-0.307 13.639,-0.641 20.459,-0.942c4.197,-0.185 8.396,-0.333 12.595,-0.478c0.341,-0.012 0.715,0.069 1.026,0.211c5.083,2.313 10.407,3.708 15.961,4.242c0.189,0.018 0.377,0.057 0.563,0.097c0.033,0.007 0.055,0.065 0.125,0.155z" fill="#000000"/>
   <path stroke="#c1c12c" stroke-dasharray="5,5" stroke-width="0" id="svg_20" d="m149.984,12.332c0.142,1.412 0.197,2.607 0.396,3.777c0.244,1.432 0.946,2.682 1.773,3.87c2.044,2.938 4.106,5.865 6.073,8.854c0.727,1.105 1.344,2.326 1.769,3.577c0.47,1.382 0.218,2.863 -0.538,4.077c-0.952,1.529 -2.142,2.91 -3.236,4.35c-0.05,0.066 -0.159,0.089 -0.329,0.178c-0.028,-0.31 -0.074,-0.56 -0.069,-0.808c0.016,-0.668 0.034,-1.337 0.087,-2.003c0.173,-2.18 -0.536,-4.059 -1.81,-5.804c-1.914,-2.62 -3.819,-5.251 -5.608,-7.956c-0.806,-1.219 -1.383,-2.605 -1.953,-3.961c-0.436,-1.035 -0.395,-2.154 -0.068,-3.234c0.598,-1.968 2.011,-3.348 3.513,-4.917z" fill="#000000"/>
   <path stroke="#c1c12c" stroke-dasharray="5,5" stroke-width="0" id="svg_21" d="m84.629,93.6c-17.361,-0.755 -34.646,-1.507 -51.931,-2.268c-0.341,-0.015 -0.677,-0.159 -1.015,-0.242c-0.004,-0.065 -0.009,-0.13 -0.013,-0.195c0.366,-0.07 0.731,-0.188 1.099,-0.202c5.439,-0.208 10.878,-0.402 16.317,-0.599c8.779,-0.318 17.558,-0.635 26.337,-0.953c1.765,-0.064 3.531,-0.135 5.296,-0.18c0.231,-0.006 0.567,0.053 0.684,0.209c1.069,1.422 2.101,2.873 3.226,4.43z" fill="#000000"/>
   <path stroke="#c1c12c" stroke-dasharray="5,5" stroke-width="0" id="svg_22" d="m301.14,118.96c-0.346,0.332 -0.59,0.594 -0.861,0.822c-1.544,1.298 -3.634,1.075 -4.87,-0.523c-0.784,-1.013 -1.145,-2.2 -1.274,-3.448c-0.241,-2.34 -0.265,-4.68 0.492,-6.945c0.687,-2.057 2.489,-3.056 4.436,-2.425c0.579,0.187 1.067,0.672 1.577,1.047c0.177,0.13 0.296,0.341 0.363,0.421c0,-1.68 0.002,-3.412 -0.003,-5.143c-0.001,-0.262 -0.069,-0.527 -0.045,-0.785c0.035,-0.373 0.076,-1.038 0.204,-1.059c0.586,-0.1 1.216,-0.084 1.801,0.035c0.167,0.034 0.328,0.549 0.334,0.847c0.025,1.193 -0.036,2.388 -0.022,3.581c0.056,4.727 0.135,9.454 0.186,14.181c0.004,0.353 0.303,0.934 -0.305,1.011c-0.63,0.08 -1.289,-0.036 -1.93,-0.113c-0.069,-0.008 -0.137,-0.328 -0.142,-0.504c-0.009,-0.307 0.033,-0.614 0.059,-1zm-0.036,-5.688c0.037,0 0.073,0 0.11,0c0,-0.906 -0.054,-1.816 0.017,-2.716c0.058,-0.749 -0.241,-1.285 -0.737,-1.764c-0.685,-0.662 -1.428,-1.244 -2.462,-0.985c-1.035,0.259 -1.344,1.147 -1.559,2.04c-0.447,1.853 -0.466,3.741 -0.175,5.609c0.136,0.874 0.418,1.777 0.854,2.542c0.775,1.358 2.357,1.426 3.313,0.184c0.329,-0.428 0.567,-1.018 0.612,-1.553c0.091,-1.113 0.027,-2.238 0.027,-3.357z" fill="#000000"/>
   <path stroke="#c1c12c" stroke-dasharray="5,5" stroke-width="0" id="svg_23" d="m373.205,119.737c0,1.151 -0.005,2.45 0.003,3.748c0.002,0.333 0.047,0.666 0.07,0.999c0.06,0.88 0.009,0.939 -0.834,0.982c-0.883,0.045 -1.203,-0.202 -1.205,-0.993c-0.004,-2.433 0.013,-4.866 0.015,-7.299c0.003,-3.169 0.001,-6.338 0.001,-9.623c0.437,-0.189 1.2,-0.356 1.625,0.099c0.339,0.363 0.255,1.123 0.363,1.73c0.089,-0.096 0.202,-0.26 0.353,-0.373c0.603,-0.453 1.163,-1.018 1.839,-1.309c1.537,-0.66 3.073,-0.027 3.74,1.5c0.301,0.688 0.511,1.446 0.596,2.191c0.25,2.215 0.282,4.434 -0.494,6.573c-0.728,2.007 -2.244,2.989 -4.19,2.622c-0.681,-0.128 -1.302,-0.576 -1.882,-0.847zm4.9,-6.122c-0.198,-1.091 -0.324,-2.405 -0.695,-3.647c-0.347,-1.159 -1.33,-1.469 -2.42,-0.943c-1.01,0.487 -1.758,1.278 -1.795,2.411c-0.066,2.001 -0.023,4.01 0.069,6.011c0.044,0.943 0.671,1.556 1.598,1.8c0.802,0.211 1.69,-0.092 2.148,-0.785c0.246,-0.371 0.476,-0.795 0.558,-1.225c0.215,-1.121 0.342,-2.258 0.537,-3.622z" fill="#000000"/>
   <path stroke="#c1c12c" stroke-dasharray="5,5" stroke-width="0" id="svg_24" d="m340.056,118.484c-1.093,1.51 -2.353,2.281 -4.065,2.149c-1.392,-0.108 -2.375,-0.863 -2.8,-2.178c-0.902,-2.79 0.254,-5.059 3.072,-5.835c1.138,-0.313 2.335,-0.41 3.694,-0.636c-0.064,-0.9 -0.016,-1.93 -0.238,-2.9c-0.238,-1.044 -1.158,-1.381 -2.157,-1.432c-0.971,-0.05 -1.867,0.088 -2.386,1.07c-0.286,0.541 -0.925,0.676 -1.499,0.333c-0.435,-0.26 -0.585,-0.86 -0.198,-1.305c0.347,-0.4 0.802,-0.779 1.287,-0.973c1.831,-0.733 3.691,-0.687 5.497,0.099c1.179,0.513 1.773,1.465 1.786,2.77c0.034,3.459 0.069,6.918 0.128,10.377c0.007,0.428 -0.131,0.582 -0.534,0.653c-1.221,0.214 -1.621,-0.112 -1.587,-1.34c0.005,-0.213 0,-0.424 0,-0.852zm-0.154,-5.318c-1.111,0.228 -2.138,0.33 -3.089,0.656c-1.821,0.624 -2.539,2.92 -1.503,4.555c0.44,0.695 1.093,0.977 1.897,0.877c1.443,-0.179 2.601,-1.45 2.685,-3c0.052,-0.948 0.01,-1.902 0.01,-3.088z" fill="#000000"/>
   <path stroke="#c1c12c" stroke-dasharray="5,5" stroke-width="0" id="svg_25" d="m286.631,113.179c-0.309,1.485 -0.482,2.989 -0.949,4.396c-0.617,1.858 -1.926,3.054 -4.009,3.116c-1.938,0.058 -3.585,-1.035 -4.335,-3.028c-1.034,-2.748 -1.063,-5.564 -0.107,-8.337c0.687,-1.994 2.231,-3 4.317,-3.025c1.939,-0.024 3.52,0.989 4.207,2.95c0.436,1.239 0.586,2.579 0.876,3.928zm-2.191,0.06c-0.117,-1.955 -0.397,-3.368 -0.979,-4.311c-0.922,-1.494 -2.802,-1.552 -3.773,-0.091c-0.258,0.389 -0.448,0.844 -0.575,1.295c-0.451,1.604 -0.477,3.24 -0.303,4.889c0.121,1.146 0.303,2.274 0.975,3.245c0.986,1.425 2.599,1.393 3.492,-0.076c0.256,-0.422 0.487,-0.893 0.583,-1.371c0.238,-1.184 0.392,-2.385 0.58,-3.58z" fill="#000000"/>
   <path stroke="#c1c12c" stroke-dasharray="5,5" stroke-width="0" id="svg_26" d="m308.445,114.462c0.265,1.102 0.391,2.135 0.762,3.07c0.856,2.154 3.166,2.535 4.768,0.857c0.311,-0.325 1.243,-0.358 1.508,-0.021c0.369,0.469 0.111,0.874 -0.239,1.19c-1.045,0.945 -2.342,1.136 -3.677,1.107c-2.367,-0.051 -3.869,-1.153 -4.537,-3.429c-0.72,-2.455 -0.765,-4.951 -0.04,-7.417c0.688,-2.339 2.296,-3.58 4.443,-3.54c1.324,0.024 2.376,0.581 3.016,1.735c0.995,1.794 1.162,3.753 0.977,5.762c-0.044,0.479 -0.276,0.627 -0.751,0.623c-1.767,-0.015 -3.534,0.008 -5.301,0.02c-0.235,0.002 -0.47,0.021 -0.929,0.043zm-0.014,-1.343c1.827,0 3.449,0 5.105,0c-0.023,-1.544 -0.099,-2.996 -0.795,-4.317c-0.734,-1.393 -2.25,-1.473 -3.159,-0.18c-0.229,0.325 -0.44,0.7 -0.524,1.082c-0.242,1.106 -0.415,2.227 -0.627,3.415z" fill="#000000"/>
   <path stroke="#c1c12c" stroke-dasharray="5,5" stroke-width="0" id="svg_27" d="m355.938,114.463c0.273,1.118 0.402,2.177 0.791,3.13c0.856,2.097 3.187,2.454 4.744,0.803c0.312,-0.331 1.245,-0.372 1.501,-0.029c0.34,0.457 0.137,0.88 -0.228,1.2c-1.075,0.945 -2.393,1.143 -3.754,1.095c-2.336,-0.083 -3.822,-1.192 -4.463,-3.43c-0.718,-2.505 -0.761,-5.048 0.009,-7.553c0.675,-2.195 2.243,-3.397 4.257,-3.403c1.607,-0.005 2.743,0.745 3.399,2.178c0.766,1.671 0.869,3.455 0.749,5.26c-0.031,0.465 -0.241,0.695 -0.776,0.687c-1.766,-0.025 -3.534,0.005 -5.301,0.018c-0.233,0.002 -0.468,0.022 -0.928,0.044zm5.079,-1.301c-0.006,-1.602 -0.07,-3.099 -0.826,-4.455c-0.685,-1.229 -2.093,-1.372 -2.956,-0.267c-1.088,1.393 -1.145,3.056 -1.144,4.722c1.669,0 3.241,0 4.926,0z" fill="#000000"/>
   <path stroke="#c1c12c" stroke-dasharray="5,5" stroke-width="0" id="svg_28" d="m219.493,114.555c0.289,1.087 0.44,2.215 0.885,3.211c0.872,1.953 3.184,2.227 4.635,0.644c0.308,-0.336 1.218,-0.39 1.502,-0.056c0.386,0.453 0.169,0.905 -0.205,1.181c-0.49,0.362 -1.037,0.739 -1.615,0.876c-3.452,0.817 -6.177,-0.228 -6.884,-4.258c-0.384,-2.189 -0.411,-4.373 0.293,-6.512c0.736,-2.236 2.31,-3.419 4.429,-3.359c1.548,0.043 2.613,0.831 3.231,2.21c0.731,1.628 0.85,3.362 0.756,5.119c-0.03,0.558 -0.276,0.807 -0.907,0.796c-1.909,-0.033 -3.819,0.013 -5.729,0.03c-0.044,0 -0.088,0.025 -0.391,0.118zm0.156,-1.427c1.698,0 3.285,0 4.903,0c0.056,-1.444 -0.079,-2.784 -0.616,-4.056c-0.298,-0.706 -0.745,-1.31 -1.599,-1.351c-0.884,-0.042 -1.491,0.444 -1.887,1.187c-0.703,1.319 -0.825,2.751 -0.801,4.22z" fill="#000000"/>
   <path stroke="#c1c12c" stroke-dasharray="5,5" stroke-width="0" id="svg_29" d="m209.682,120.908c-1.163,-0.323 -2.246,-0.579 -3.289,-0.948c-0.231,-0.082 -0.485,-0.593 -0.433,-0.845c0.056,-0.269 0.432,-0.535 0.729,-0.665c0.178,-0.078 0.491,0.067 0.708,0.18c1.204,0.625 2.464,0.727 3.756,0.394c1.628,-0.42 2.267,-1.769 1.47,-3.256c-0.375,-0.7 -0.929,-1.331 -1.501,-1.892c-0.937,-0.918 -1.972,-1.734 -2.933,-2.629c-1.003,-0.934 -1.883,-1.966 -2.28,-3.324c-0.729,-2.489 0.46,-4.78 2.923,-5.559c1.595,-0.504 3.204,-0.478 4.778,0.099c0.428,0.157 1.004,0.376 0.725,1.008c-0.236,0.536 -0.692,0.531 -1.267,0.383c-0.794,-0.204 -1.651,-0.337 -2.462,-0.269c-1.921,0.161 -3.013,1.772 -2.617,3.674c0.238,1.146 0.882,2.062 1.697,2.848c1.013,0.977 2.114,1.865 3.115,2.853c0.691,0.682 1.39,1.402 1.89,2.224c1.108,1.823 0.539,3.795 -1.401,4.674c-1.129,0.513 -2.397,0.71 -3.608,1.05z" fill="#000000"/>
   <path stroke="#c1c12c" stroke-dasharray="5,5" stroke-width="0" id="svg_30" d="m455.659,110.425c0.525,-0.655 0.916,-1.343 1.489,-1.803c0.592,-0.475 1.327,-0.878 2.061,-1.048c1.761,-0.41 3.242,0.692 3.328,2.506c0.095,2.024 0.007,4.055 0.014,6.084c0.004,1.217 0.026,2.434 0.064,3.65c0.022,0.686 -0.132,0.856 -0.931,0.892c-0.751,0.034 -1.137,-0.233 -1.134,-0.844c0.008,-1.504 0.042,-3.007 0.065,-4.51c0.018,-1.169 0.044,-2.339 0.046,-3.508c0.001,-0.38 -0.036,-0.764 -0.1,-1.139c-0.271,-1.579 -1.579,-2.117 -2.853,-1.133c-1.266,0.977 -1.902,2.326 -1.898,3.914c0.006,2.1 0.096,4.199 0.149,6.298c0.019,0.746 -0.159,0.911 -0.977,0.922c-0.753,0.009 -1.019,-0.228 -1.043,-0.929c-0.131,-3.839 -0.244,-7.68 -0.41,-11.518c-0.033,-0.759 0.387,-0.807 0.914,-0.836c0.868,-0.047 1.201,0.171 1.213,0.814c0.013,0.715 0.003,1.429 0.003,2.188z" fill="#000000"/>
   <path stroke="#c1c12c" stroke-dasharray="5,5" stroke-width="0" id="svg_31" d="m246.703,117.825c0.152,-0.455 0.268,-0.784 0.372,-1.116c1.041,-3.317 2.08,-6.635 3.119,-9.953c0.141,-0.451 0.796,-0.649 1.516,-0.443c0.53,0.151 0.744,0.489 0.558,1.031c-0.671,1.959 -1.349,3.917 -2.018,5.877c-0.746,2.185 -1.525,4.361 -2.202,6.567c-0.197,0.642 -0.496,0.907 -1.109,0.928c-0.678,0.023 -1.292,-0.057 -1.572,-0.816c-0.595,-1.609 -1.224,-3.204 -1.798,-4.82c-0.949,-2.671 -1.866,-5.353 -2.793,-8.031c-0.061,-0.175 -0.094,-0.359 -0.158,-0.611c0.44,-0.051 0.837,-0.129 1.235,-0.137c0.665,-0.013 1.091,0.275 1.312,0.961c1.032,3.195 2.101,6.379 3.161,9.565c0.098,0.292 0.217,0.576 0.377,0.998z" fill="#000000"/>
   <path stroke="#c1c12c" stroke-dasharray="5,5" stroke-width="0" id="svg_32" d="m346.709,106.381c0.072,-0.665 0.114,-1.279 0.209,-1.885c0.34,-2.174 1.571,-3.389 3.748,-3.7c1.347,-0.192 2.666,-0.094 3.921,0.481c0.411,0.188 0.825,0.456 0.591,0.97c-0.227,0.497 -0.626,0.508 -1.19,0.356c-0.924,-0.248 -1.906,-0.373 -2.865,-0.376c-0.891,-0.003 -1.522,0.591 -1.765,1.439c-0.24,0.837 -0.355,1.71 -0.545,2.674c0.947,0 1.744,-0.011 2.541,0.004c0.521,0.01 1.235,-0.18 1.268,0.64c0.036,0.906 -0.718,0.69 -1.257,0.701c-0.783,0.016 -1.567,0.004 -2.408,0.004c-0.013,0.283 -0.038,0.513 -0.033,0.744c0.079,3.746 0.156,7.492 0.246,11.238c0.02,0.857 -0.031,0.928 -0.959,0.968c-0.919,0.039 -1.194,-0.179 -1.203,-0.98c-0.035,-3.27 -0.067,-6.539 -0.097,-9.809c-0.006,-0.689 -0.001,-1.378 -0.001,-2.147c-0.603,0 -1.074,0.016 -1.543,-0.005c-0.459,-0.021 -0.888,-0.144 -0.868,-0.722c0.021,-0.601 0.452,-0.628 0.923,-0.601c0.421,0.026 0.846,0.006 1.287,0.006z" fill="#000000"/>
   <path stroke="#c1c12c" stroke-dasharray="5,5" stroke-width="0" id="svg_33" d="m388.744,112.801c0,-0.823 0.06,-1.587 -0.015,-2.337c-0.095,-0.952 -0.768,-1.562 -1.743,-1.731c-1.188,-0.206 -2.097,0.133 -2.559,0.953c-0.268,0.476 -0.877,0.623 -1.371,0.308c-0.529,-0.337 -0.496,-0.842 -0.166,-1.232c0.311,-0.367 0.742,-0.695 1.187,-0.873c1.646,-0.656 3.318,-0.602 4.948,0.074c1.125,0.467 1.699,1.359 1.714,2.576c0.04,3.198 0.071,6.396 0.076,9.594c0,0.168 -0.242,0.443 -0.417,0.487c-1.127,0.283 -1.511,-0.049 -1.491,-1.222c0.003,-0.183 0,-0.366 0,-0.725c-0.232,0.281 -0.356,0.437 -0.487,0.588c-0.954,1.098 -2.173,1.602 -3.583,1.295c-0.627,-0.136 -1.326,-0.522 -1.729,-1.011c-1.533,-1.861 -0.784,-4.992 1.428,-5.931c0.946,-0.402 2.017,-0.52 3.038,-0.734c0.366,-0.075 0.751,-0.053 1.17,-0.079zm0.096,0.915c-1.199,0.277 -2.211,0.39 -3.127,0.748c-1.592,0.621 -2.142,2.912 -1.047,4.227c0.273,0.328 0.778,0.583 1.207,0.639c1.222,0.159 2.44,-0.705 2.718,-2.05c0.222,-1.078 0.166,-2.212 0.249,-3.564z" fill="#000000"/>
   <path stroke="#c1c12c" stroke-dasharray="5,5" stroke-width="0" id="svg_34" d="m410.551,112.801c0,-0.837 0.049,-1.578 -0.012,-2.31c-0.08,-0.953 -0.727,-1.571 -1.709,-1.754c-1.173,-0.219 -2.157,0.102 -2.562,0.929c-0.194,0.396 -0.439,0.575 -0.818,0.464c-0.318,-0.093 -0.771,-0.249 -0.854,-0.486c-0.101,-0.289 0.011,-0.804 0.23,-1.021c0.375,-0.372 0.872,-0.682 1.374,-0.853c1.445,-0.493 2.915,-0.441 4.351,0.072c1.383,0.494 1.982,1.405 1.996,2.883c0.028,3.078 0.043,6.156 0.123,9.232c0.017,0.66 -0.32,0.717 -0.766,0.718c-0.507,0.001 -1.123,0.105 -1.202,-0.662c-0.041,-0.398 -0.007,-0.803 -0.007,-1.31c-0.178,0.216 -0.302,0.371 -0.432,0.523c-0.922,1.081 -2.103,1.623 -3.494,1.342c-0.652,-0.132 -1.393,-0.494 -1.814,-0.99c-1.584,-1.868 -0.83,-5.028 1.423,-5.976c0.927,-0.39 1.97,-0.511 2.968,-0.72c0.367,-0.075 0.753,-0.053 1.205,-0.081zm-0.006,0.939c-1.102,0.258 -2.133,0.374 -3.063,0.744c-1.567,0.624 -2.084,2.966 -0.972,4.24c0.28,0.321 0.792,0.564 1.222,0.608c1.358,0.139 2.652,-1.013 2.797,-2.502c0.091,-0.94 0.016,-1.897 0.016,-3.09z" fill="#000000"/>
   <path stroke="#c1c12c" stroke-dasharray="5,5" stroke-width="0" id="svg_35" d="m483.79,113.807c-0.309,1.41 -0.486,2.815 -0.938,4.126c-0.571,1.654 -1.77,2.71 -3.632,2.728c-1.91,0.018 -3.246,-0.929 -3.929,-2.668c-1.023,-2.604 -1.036,-5.275 -0.088,-7.898c0.629,-1.741 2.084,-2.638 3.957,-2.619c1.817,0.018 3.138,0.891 3.748,2.574c0.431,1.189 0.592,2.477 0.882,3.757zm-7.443,0.253c0.261,1.229 0.462,2.547 0.838,3.814c0.265,0.893 0.951,1.505 1.963,1.511c0.992,0.006 1.502,-0.699 1.805,-1.501c0.914,-2.421 0.975,-4.897 0.212,-7.363c-0.357,-1.154 -1.113,-1.689 -2.058,-1.681c-0.959,0.008 -1.73,0.532 -2.065,1.674c-0.327,1.109 -0.456,2.276 -0.695,3.546z" fill="#000000"/>
   <path stroke="#c1c12c" stroke-dasharray="5,5" stroke-width="0" id="svg_36" d="m444.192,114.876c0.017,1.267 0.181,2.369 0.762,3.359c0.902,1.536 2.927,1.719 4.124,0.4c0.335,-0.369 1.126,-0.449 1.408,-0.102c0.386,0.474 0.083,0.853 -0.265,1.17c-1.969,1.794 -6.048,1.107 -7.106,-1.328c-1.227,-2.825 -1.252,-5.769 -0.013,-8.617c0.805,-1.85 2.619,-2.652 4.48,-2.205c1.031,0.248 1.729,0.894 2.164,1.823c0.718,1.531 0.834,3.167 0.738,4.827c-0.026,0.454 -0.212,0.701 -0.76,0.689c-1.808,-0.04 -3.618,-0.016 -5.532,-0.016zm-0.003,-1.148c1.553,0 3.018,0 4.678,0c-0.238,-1.263 -0.391,-2.417 -0.69,-3.533c-0.203,-0.757 -0.686,-1.411 -1.592,-1.421c-0.897,-0.011 -1.445,0.558 -1.792,1.319c-0.524,1.151 -0.65,2.375 -0.604,3.635z" fill="#000000"/>
   <path stroke="#c1c12c" stroke-dasharray="5,5" stroke-width="0" id="svg_37" d="m421.841,114.876c0.021,1.261 0.184,2.362 0.763,3.354c0.897,1.537 2.923,1.726 4.124,0.41c0.338,-0.37 1.131,-0.459 1.406,-0.109c0.397,0.506 0.064,0.893 -0.313,1.216c-2.175,1.86 -6.204,0.969 -7.209,-1.69c-0.992,-2.623 -1.022,-5.335 -0.011,-7.975c0.785,-2.05 2.651,-3.005 4.634,-2.529c1.059,0.254 1.758,0.928 2.194,1.886c0.691,1.516 0.798,3.127 0.707,4.762c-0.026,0.458 -0.209,0.701 -0.757,0.69c-1.808,-0.039 -3.618,-0.015 -5.538,-0.015zm4.493,-1.134c0.038,-1.348 -0.065,-2.593 -0.585,-3.772c-0.283,-0.641 -0.701,-1.168 -1.467,-1.197c-0.767,-0.029 -1.322,0.383 -1.679,1.03c-0.679,1.228 -0.797,2.566 -0.765,3.939c1.522,0 2.987,0 4.496,0z" fill="#000000"/>
   <path stroke="#c1c12c" stroke-dasharray="5,5" stroke-width="0" id="svg_38" d="m435.599,117.893c1.008,-3.248 2.023,-6.494 3.021,-9.745c0.207,-0.673 0.606,-0.887 1.417,-0.685c0.681,0.17 0.694,0.635 0.506,1.167c-0.999,2.831 -2.013,5.657 -3.003,8.491c-0.306,0.876 -0.599,1.763 -0.804,2.667c-0.139,0.612 -0.415,0.912 -1.041,0.915c-0.63,0.003 -1.184,-0.071 -1.441,-0.78c-0.853,-2.352 -1.738,-4.693 -2.582,-7.048c-0.617,-1.723 -1.189,-3.462 -1.801,-5.252c0.35,-0.062 0.627,-0.133 0.907,-0.155c0.862,-0.068 1.215,0.173 1.486,0.988c0.969,2.917 1.937,5.835 2.908,8.751c0.074,0.222 0.168,0.437 0.252,0.656c0.059,0.01 0.117,0.02 0.175,0.03z" fill="#000000"/>
   <path stroke="#c1c12c" stroke-dasharray="5,5" stroke-width="0" id="svg_39" d="m232.42,120.485c-0.225,0.05 -0.405,0.102 -0.589,0.129c-1.675,0.243 -1.855,0.076 -1.862,-1.608c-0.016,-4.01 -0.038,-8.02 -0.078,-12.03c-0.004,-0.396 0.13,-0.597 0.493,-0.625c0.376,-0.028 0.764,-0.051 1.133,0.009c0.485,0.078 0.725,0.379 0.677,0.916c-0.084,0.936 -0.123,1.875 -0.181,2.824c0.591,-0.789 1.092,-1.606 1.736,-2.286c1.029,-1.086 2.288,-1.715 3.853,-1.413c1.249,0.241 2.215,1.667 1.956,2.916c-0.121,0.581 -0.596,0.713 -1.101,0.694c-0.481,-0.018 -1.026,0.052 -1.178,-0.638c-0.295,-1.343 -1.079,-1.719 -2.266,-0.993c-1.794,1.098 -2.791,2.774 -2.839,4.855c-0.05,2.142 0.123,4.29 0.201,6.435c0.009,0.26 0.028,0.519 0.045,0.815z" fill="#000000"/>
   <path stroke="#c1c12c" stroke-dasharray="5,5" stroke-width="0" id="svg_40" d="m467.03,108.733c-0.709,0 -1.302,0.012 -1.895,-0.004c-0.404,-0.011 -0.72,-0.189 -0.679,-0.645c0.037,-0.411 0.291,-0.615 0.737,-0.595c0.588,0.026 1.177,0.007 1.809,0.007c0,-1.024 0.047,-2 -0.016,-2.968c-0.043,-0.654 0.211,-0.832 0.803,-0.838c0.929,-0.009 1.175,0.116 1.194,0.82c0.026,0.974 0.007,1.949 0.007,3.003c1.011,0 1.906,-0.006 2.801,0.004c0.259,0.003 0.583,-0.032 0.758,0.104c0.179,0.139 0.304,0.478 0.274,0.706c-0.021,0.158 -0.341,0.386 -0.535,0.393c-1.047,0.039 -2.096,0.018 -3.173,0.018c-0.042,0.164 -0.103,0.295 -0.106,0.427c-0.057,2.552 -0.111,5.105 -0.154,7.658c-0.005,0.307 0.036,0.62 0.101,0.921c0.251,1.158 0.931,1.643 2.119,1.521c0.331,-0.034 0.66,-0.154 0.987,-0.145c0.234,0.006 0.613,0.113 0.661,0.261c0.077,0.238 -0.06,0.549 -0.125,0.824c-0.012,0.051 -0.11,0.084 -0.171,0.121c-2.223,1.357 -5.36,-0.219 -5.433,-2.807c-0.074,-2.622 0.017,-5.249 0.034,-7.874c0.003,-0.258 0.002,-0.517 0.002,-0.912z" fill="#000000"/>
   <path stroke="#c1c12c" stroke-dasharray="5,5" stroke-width="0" id="svg_41" d="m396.027,110.745c0.757,-0.834 1.441,-1.72 2.26,-2.454c0.816,-0.732 1.856,-0.944 2.951,-0.716c1.093,0.228 2.02,1.654 1.653,2.701c-0.099,0.282 -0.631,0.509 -0.997,0.574c-0.425,0.076 -0.921,0.029 -1.065,-0.573c-0.3,-1.254 -0.986,-1.563 -2.11,-0.869c-1.489,0.919 -2.424,2.305 -2.503,4.033c-0.095,2.064 0.058,4.141 0.125,6.211c0.031,0.957 0.053,0.956 -1.04,1.009c-0.928,0.045 -1.179,-0.156 -1.183,-0.985c-0.016,-3.838 -0.02,-7.677 -0.051,-11.515c-0.003,-0.419 0.126,-0.591 0.524,-0.673c1.159,-0.239 1.667,0.193 1.569,1.359c-0.057,0.658 -0.093,1.319 -0.133,1.898z" fill="#000000"/>
   <path stroke="#c1c12c" stroke-dasharray="5,5" stroke-width="0" id="svg_42" d="m489.145,120.8c-0.909,-0.25 -1.831,-0.465 -2.723,-0.766c-0.444,-0.149 -0.846,-0.521 -0.584,-1.043c0.264,-0.526 0.748,-0.489 1.23,-0.209c0.963,0.559 1.994,0.787 3.096,0.534c0.738,-0.17 1.332,-0.542 1.562,-1.313c0.213,-0.714 -0.131,-1.274 -0.619,-1.722c-0.614,-0.564 -1.289,-1.06 -1.932,-1.592c-0.68,-0.562 -1.414,-1.074 -2.017,-1.71c-1.882,-1.984 -1.094,-4.625 1.575,-5.27c1.419,-0.343 2.86,-0.343 4.152,0.464c0.248,0.155 0.426,0.632 0.397,0.938c-0.017,0.182 -0.486,0.365 -0.781,0.459c-0.131,0.041 -0.324,-0.169 -0.502,-0.213c-0.773,-0.188 -1.555,-0.514 -2.327,-0.498c-1.312,0.027 -2.033,1.346 -1.478,2.545c0.186,0.401 0.477,0.776 0.794,1.087c0.459,0.449 0.978,0.837 1.485,1.234c0.507,0.397 1.05,0.751 1.543,1.164c1.018,0.852 2.115,1.722 1.651,3.278c-0.492,1.652 -1.898,2.149 -3.41,2.424c-0.35,0.064 -0.714,0.049 -1.071,0.07c-0.013,0.046 -0.027,0.093 -0.041,0.139z" fill="#000000"/>
   <path stroke="#c1c12c" stroke-dasharray="5,5" stroke-width="0" id="svg_43" d="m325.264,113.351c0.176,1.017 0.277,2.338 0.648,3.578c0.585,1.959 1.939,2.638 3.941,2.189c0.07,-0.016 0.137,-0.041 0.206,-0.058c0.402,-0.099 0.864,-0.105 0.915,0.37c0.029,0.271 -0.257,0.718 -0.52,0.852c-0.996,0.506 -2.081,0.479 -3.146,0.248c-1.505,-0.326 -2.587,-1.245 -3.166,-2.646c-1.184,-2.863 -1.307,-5.819 -0.265,-8.727c1.057,-2.949 3.826,-3.237 5.934,-2.687c0.379,0.099 0.844,0.275 0.664,0.824c-0.156,0.478 -0.514,0.581 -1.028,0.472c-2.163,-0.456 -3.331,0.283 -3.806,2.452c-0.201,0.926 -0.233,1.887 -0.377,3.133z" fill="#000000"/>
   <path stroke="#c1c12c" stroke-dasharray="5,5" stroke-width="0" id="svg_44" d="m262.695,113.311c0.184,1.051 0.29,2.347 0.652,3.566c0.598,2.016 1.93,2.697 3.974,2.235c0.185,-0.042 0.398,-0.144 0.554,-0.091c0.223,0.077 0.491,0.233 0.578,0.428c0.068,0.151 -0.059,0.457 -0.193,0.613c-0.146,0.169 -0.39,0.272 -0.61,0.353c-2.209,0.818 -4.708,-0.102 -5.874,-2.152c-0.727,-1.277 -0.959,-2.685 -1.065,-4.118c-0.121,-1.653 -0.043,-3.297 0.543,-4.869c1.137,-3.05 3.887,-3.361 6.015,-2.805c0.392,0.102 0.838,0.304 0.654,0.837c-0.161,0.465 -0.527,0.564 -1.042,0.455c-2.153,-0.456 -3.346,0.315 -3.793,2.472c-0.193,0.93 -0.247,1.887 -0.393,3.076z" fill="#000000"/>
   <path stroke="#c1c12c" stroke-dasharray="5,5" stroke-width="0" id="svg_45" d="m273.076,113.563c0,2.123 -0.033,4.248 0.019,6.37c0.017,0.683 -0.342,0.732 -0.82,0.757c-0.814,0.042 -1.308,-0.219 -1.327,-0.737c-0.019,-0.5 0.029,-1.001 0.031,-1.502c0.018,-3.698 0.024,-7.397 0.054,-11.095c0.008,-1.013 0.885,-1.481 1.767,-0.924c0.208,0.131 0.327,0.547 0.33,0.833c0.027,2.099 0.015,4.198 0.015,6.298c-0.023,-0.001 -0.046,-0.001 -0.069,0z" fill="#000000"/>
   <path stroke="#c1c12c" stroke-dasharray="5,5" stroke-width="0" id="svg_46" d="m257.158,113.505c0,2.123 -0.036,4.248 0.019,6.37c0.02,0.755 -0.374,0.811 -0.912,0.816c-0.83,0.008 -1.243,-0.256 -1.24,-0.833c0.026,-4.271 0.076,-8.541 0.083,-12.812c0.001,-0.893 0.582,-0.772 1.113,-0.768c0.556,0.004 1.033,0.088 1.022,0.858c-0.029,2.123 -0.01,4.246 -0.01,6.369c-0.025,0 -0.05,0 -0.075,0z" fill="#000000"/>
   <path stroke="#c1c12c" stroke-dasharray="5,5" stroke-width="0" id="svg_47" d="m358.287,105.128c-0.31,-0.161 -0.736,-0.248 -0.866,-0.492c-0.103,-0.193 0.094,-0.623 0.266,-0.873c0.528,-0.765 1.104,-1.498 1.672,-2.236c0.345,-0.447 1.385,-0.55 1.726,-0.118c0.139,0.176 0.153,0.618 0.026,0.807c-0.581,0.872 -1.206,1.721 -1.876,2.526c-0.178,0.214 -0.577,0.243 -0.948,0.386z" fill="#000000"/>
   <path stroke="#c1c12c" stroke-dasharray="5,5" stroke-width="0" id="svg_48" d="m271.271,102.773c0,-0.048 0,-0.095 0,-0.143c-0.01,-1.067 0.558,-1.477 1.578,-1.063c0.236,0.096 0.44,0.443 0.516,0.714c0.086,0.308 0.011,0.66 0.007,0.993c-0.012,0.967 -0.137,1.092 -1.097,1.095c-0.803,0.002 -1.008,-0.237 -1.004,-1.167c0.001,-0.143 0,-0.286 0,-0.429z" fill="#000000"/>
   <path stroke="#c1c12c" stroke-dasharray="5,5" stroke-width="0" id="svg_49" d="m257.457,103.029c-0.001,0.071 0,0.143 -0.001,0.214c-0.017,0.962 -0.793,1.435 -1.693,1.014c-0.154,-0.072 -0.359,-0.247 -0.368,-0.385c-0.045,-0.686 -0.046,-1.376 -0.024,-2.064c0.003,-0.094 0.213,-0.224 0.349,-0.264c1.261,-0.377 1.763,0.057 1.737,1.485z" fill="#000000"/>
  </g>
 </g>
</svg>