<?xml version="1.0" encoding="utf-8"?>
<!-- Generator: Adobe Illustrator 17.0.0, SVG Export Plug-In . SVG Version: 6.00 Build 0)  -->
<!DOCTYPE svg PUBLIC "-//W3C//DTD SVG 1.1//EN" "http://www.w3.org/Graphics/SVG/1.1/DTD/svg11.dtd">
<svg version="1.1" id="Capa_1" xmlns="http://www.w3.org/2000/svg" xmlns:xlink="http://www.w3.org/1999/xlink" x="0px" y="0px"
	 width="409.333px" height="91.333px" viewBox="0 0 409.333 91.333" enable-background="new 0 0 409.333 91.333"
	 xml:space="preserve">
<path fill="#A9C838" d="M88.075,4.837c0.414,0.863,0.81,1.736,1.246,2.588c0.9,1.759,2.315,2.997,3.951,4.074
	c3.482,2.294,6.93,4.64,10.345,7.031c1.525,1.068,2.733,2.461,3.4,4.247c0.719,1.927,0.388,3.837-0.175,5.721
	c-0.296,0.991-0.693,1.952-1.056,2.923c-0.05,0.135-0.164,0.246-0.249,0.368c-0.083-0.123-0.196-0.235-0.245-0.371
	c-0.44-1.217-0.849-2.445-1.306-3.655c-0.606-1.603-1.665-2.84-3.101-3.776c-3.276-2.134-6.573-4.24-9.793-6.456
	c-1.182-0.814-2.251-1.833-3.234-2.887C86.323,13,85.813,10.98,86.314,8.796c0.311-1.356,0.833-2.664,1.272-3.99
	c0.043-0.131,0.173-0.234,0.263-0.349c0.097,0.114,0.195,0.227,0.292,0.341C88.119,4.81,88.097,4.823,88.075,4.837z"/>
<path fill="#A9C838" d="M115.259,18.701c0.178,1.364-0.116,2.581-0.83,3.66c-0.593,0.896-1.326,1.699-2.006,2.537
	c-0.077,0.095-0.209,0.145-0.316,0.216c-0.024-0.121-0.072-0.243-0.069-0.364c0.02-0.749,0.055-1.497,0.08-2.245
	c0.045-1.404-0.433-2.613-1.26-3.742c-1.524-2.079-3.024-4.177-4.464-6.314c-0.522-0.775-0.903-1.663-1.243-2.539
	c-0.654-1.685-0.191-3.204,0.873-4.576c0.405-0.522,0.858-1.006,1.299-1.498c0.094-0.105,0.232-0.17,0.349-0.253
	c0.028,0.147,0.072,0.293,0.081,0.44c0.024,0.396,0.03,0.793,0.05,1.189c0.076,1.448,0.563,2.734,1.406,3.923
	c1.631,2.3,3.243,4.615,4.795,6.969C114.529,16.899,114.847,17.831,115.259,18.701z"/>
<path fill="#A9C838" d="M78.63,18.236c0.555,0.497,0.984,0.912,1.446,1.287c1.232,1.002,2.629,1.606,4.211,1.854
	c3.171,0.499,6.335,1.04,9.494,1.611c0.808,0.146,1.603,0.423,2.371,0.722c1.805,0.703,3.054,1.99,3.492,3.883
	c0.307,1.328,0.389,2.709,0.556,4.069c0.016,0.126-0.076,0.265-0.118,0.398c-0.104-0.071-0.222-0.126-0.308-0.214
	c-0.704-0.722-1.401-1.451-2.103-2.175c-0.939-0.97-2.11-1.471-3.424-1.678c-2.889-0.454-5.79-0.848-8.663-1.387
	c-1.36-0.255-2.697-0.713-3.99-1.219c-1.459-0.571-2.423-1.721-2.783-3.237c-0.279-1.175-0.346-2.4-0.492-3.605
	c-0.016-0.135,0.07-0.282,0.109-0.423C78.539,18.185,78.649,18.247,78.63,18.236z"/>
<path fill="none" d="M72.54,47.288c0.19,0.016,0.453,0.416,0.499,0.67c0.279,1.553,0.386,3.147,0.775,4.669
	c0.8,3.13,1.728,6.229,2.638,9.33c0.156,0.531,0.082,0.678-0.473,0.655c-0.828-0.035-1.658-0.009-2.488-0.009
	c0-0.002,0-0.003,0-0.005c-0.777,0-1.556,0.02-2.332-0.003c-4.488-0.132-7.948-4.29-7.296-8.732
	C64.388,50.288,67.5,46.866,72.54,47.288z"/>
<path fill="none" d="M116.155,85.308c-2.034,0-3.682-1.649-3.682-3.682c0-0.322,0.042-0.634,0.119-0.932
	c2.34-0.001,4.68-0.003,7.02-0.008c0.034,0,0.068-0.003,0.103-0.005c0.08,0.301,0.123,0.618,0.123,0.944
	C119.837,83.659,118.189,85.308,116.155,85.308z"/>
<path fill="#A9C838" d="M110.079,80.727c0,3.88,3.145,7.025,7.025,7.025c3.88,0,7.025-3.145,7.025-7.025
	c0-1.097-0.252-2.135-0.7-3.06c-1.137-2.347-3.542-3.965-6.325-3.965c-3.871,0-7.01,3.131-7.025,6.999
	C110.08,80.709,110.079,80.718,110.079,80.727z M113.243,81.476c0-0.268,0.035-0.529,0.099-0.777
	c0.344-1.319,1.544-2.293,2.971-2.293c1.423,0,2.62,0.969,2.968,2.283c0.067,0.251,0.102,0.515,0.102,0.787
	c0,1.696-1.375,3.07-3.07,3.07S113.243,83.172,113.243,81.476z"/>
<path fill="none" d="M72.54,47.288c0.19,0.016,0.453,0.416,0.499,0.67c0.279,1.553,0.386,3.147,0.775,4.669
	c0.8,3.13,1.728,6.229,2.638,9.33c0.156,0.531,0.082,0.678-0.473,0.655c-0.828-0.035-1.658-0.009-2.488-0.009
	c0-0.002,0-0.003,0-0.005c-0.777,0-1.556,0.02-2.332-0.003c-4.488-0.132-7.948-4.29-7.296-8.732
	C64.388,50.288,67.5,46.866,72.54,47.288z"/>
<path fill="none" d="M93.084,84.447c-2.113,0-3.825-1.713-3.825-3.825c0-0.172,0.013-0.342,0.035-0.508
	c0.715,0.414,1.47,0.617,2.384,0.613c1.743-0.009,3.486-0.014,5.229-0.019C96.861,82.78,95.168,84.447,93.084,84.447z"/>
<path fill="#462F14" d="M64.532,65.867c2.088,1.328,4.376,1.997,6.843,2.021c2.334,0.023,4.669,0.023,7.003-0.006
	c0.536-0.007,0.821,0.159,1.084,0.637c1.888,3.437,4.141,6.575,6.965,9.247c1.187-3.057,4.154-5.225,7.63-5.225
	c4.511,0,8.168,3.649,8.183,8.156c2.146-0.002,4.292-0.003,6.439-0.004c0.017-4.639,3.782-8.395,8.426-8.395
	c3.338,0,6.222,1.941,7.587,4.756c2.097-2.101,3.857-4.508,5.408-7.096c3.937-6.572,6.176-13.732,7.108-21.299
	c0.335-2.721,0.451-5.476,0.537-8.22c0.098-3.147-2.121-5.348-5.287-5.353c-8.403-0.013-16.807-0.004-25.21-0.004
	c-0.7,0-1.4,0-2.101,0c-9.052,0-18.104-0.005-27.156,0.003c-2.735,0.002-4.787,1.592-5.282,4.118
	c-0.128,0.653-0.12,1.344-0.087,2.013c0.028,0.572-0.131,0.773-0.727,0.762c-2.321-0.042-4.519,0.444-6.58,1.559
	C56.592,48.257,56.157,60.54,64.532,65.867z M63.864,53.862c0.524-3.574,3.636-6.996,8.677-6.574c0.19,0.016,0.453,0.416,0.499,0.67
	c0.279,1.553,0.386,3.147,0.775,4.669c0.8,3.13,1.728,6.229,2.638,9.33c0.156,0.531,0.082,0.678-0.473,0.655
	c-0.828-0.035-1.658-0.009-2.488-0.009c0-0.002,0-0.003,0-0.005c-0.777,0-1.556,0.02-2.332-0.003
	C66.672,62.463,63.212,58.304,63.864,53.862z"/>
<path fill="#A9C838" d="M87.274,80.727c0,3.746,3.037,6.783,6.783,6.783s6.783-3.037,6.783-6.783c0-0.008-0.001-0.015-0.001-0.023
	c-0.013-3.735-3.044-6.76-6.783-6.76c-2.881,0-5.341,1.797-6.324,4.33C87.438,79.035,87.274,79.861,87.274,80.727z M90.081,80.64
	c0-0.143,0.01-0.283,0.029-0.421c0.206-1.552,1.533-2.749,3.142-2.749c1.751,0,3.17,1.419,3.17,3.17
	c0,0.024-0.001,0.047-0.002,0.071c-0.038,1.718-1.441,3.099-3.168,3.099C91.5,83.81,90.081,82.39,90.081,80.64z"/>
<g>
	<path fill="#A9C838" d="M55.945,61.112c-4.376,0.164-8.752,0.321-13.127,0.477c-5.399,0.193-10.798,0.382-16.196,0.576
		c-2.351,0.084-4.703,0.173-7.054,0.268c-0.256,0.01-0.509,0.08-0.764,0.122c-0.004,0.066-0.009,0.131-0.013,0.197
		c0.65,0.116,1.296,0.307,1.951,0.335c3.945,0.167,7.892,0.288,11.837,0.441c4.294,0.166,8.586,0.353,12.879,0.526
		c2.76,0.111,5.521,0.209,8.282,0.324c1.636,0.068,3.27,0.167,4.906,0.229c0.031,0.001,0.06,0.001,0.089,0.002
		c-1.004-1.074-1.894-2.248-2.65-3.505C56.039,61.106,55.992,61.11,55.945,61.112z"/>
	<path fill="#A9C838" d="M64.713,36.569c-8.197,0.206-16.393,0.407-24.589,0.624c-5.531,0.146-11.061,0.338-16.592,0.49
		c-6.521,0.179-13.043,0.332-19.564,0.508c-0.778,0.021-1.553,0.11-2.33,0.168c-0.004,0.078-0.007,0.157-0.011,0.235
		c0.168,0.041,0.334,0.105,0.504,0.118c0.858,0.066,1.716,0.153,2.575,0.169c2.546,0.048,5.093,0.043,7.639,0.102
		c4.359,0.1,8.716,0.239,13.075,0.349c1.886,0.048,3.774,0.045,5.66,0.097c3.9,0.108,7.799,0.249,11.699,0.356
		c2.856,0.078,5.714,0.106,8.571,0.186c3.2,0.09,6.399,0.2,9.598,0.301C62.043,38.943,63.306,37.703,64.713,36.569z"/>
	<path fill="#A9C838" d="M48.326,48.394c-6.265,0.079-12.53,0.148-18.795,0.228c-3.954,0.051-7.907,0.12-11.86,0.173
		c-2.559,0.035-5.118,0.047-7.677,0.092c-0.534,0.009-1.067,0.119-1.6,0.182c0,0.042,0,0.085,0,0.127
		c0.09,0.034,0.177,0.09,0.269,0.1c0.964,0.113,1.927,0.261,2.895,0.318c2.537,0.151,5.076,0.262,7.614,0.389
		c2.29,0.115,4.58,0.235,6.871,0.344c1.252,0.06,2.505,0.081,3.756,0.155c3.311,0.196,6.62,0.433,9.931,0.613
		c3.998,0.218,7.998,0.398,11.998,0.588c1.37,0.065,2.741,0.1,4.11,0.172c0.072-1.229,0.268-2.433,0.579-3.606
		C53.72,48.315,51.023,48.36,48.326,48.394z"/>
	<path fill="#A9C838" d="M56.781,73.652c-5.614,0.247-11.224,0.537-16.837,0.794c-1.945,0.089-3.895,0.13-5.841,0.211
		c-0.394,0.016-0.781,0.111-1.171,0.169c0.002,0.078,0.005,0.155,0.007,0.233c0.496,0.082,0.985,0.201,1.489,0.237
		c1.052,0.074,2.11,0.123,3.168,0.149c3.314,0.08,6.63,0.117,9.942,0.219c7.235,0.223,14.467,0.48,21.701,0.716
		c4.089,0.133,8.178,0.258,12.269,0.368c0.179,0.005,0.359-0.022,0.54-0.058c-0.033-0.029-0.066-0.059-0.099-0.088
		c-4.713-0.398-9.107-1.603-12.943-3.432C64.931,73.334,60.854,73.473,56.781,73.652z"/>
</g>
<path fill="#E95E21" d="M171.886,77.287h-3.353V52.353h-14.631v24.934h-3.353V52.353h-5.06l2.012-3.414h3.048V35.833h3.353v13.106
	h14.631V35.833h3.353V77.287z"/>
<path fill="#E95E21" d="M182.31,65.582v11.705h-3.353V65.582h-4.328l2.012-3.353h2.316v-16.46c0-1.91,0.488-3.697,1.463-5.364
	c0.975-1.666,2.295-2.987,3.962-3.963c1.666-0.976,3.454-1.463,5.365-1.463c1.91,0,3.698,0.487,5.365,1.463
	c1.666,0.976,2.987,2.297,3.962,3.963c0.975,1.667,1.463,3.454,1.463,5.364v31.518h-3.353V65.582H182.31z M182.31,62.229h14.875
	v-16.46c0-1.463-0.356-2.763-1.066-3.901c-0.712-1.138-1.637-2.012-2.774-2.621c-1.138-0.61-2.337-0.915-3.597-0.915
	c-2.195,0-3.984,0.753-5.365,2.256c-1.382,1.504-2.073,3.231-2.073,5.182V62.229z"/>
<path fill="#E95E21" d="M207.548,47.781v29.506h-3.353V35.04l17.191,30.359V35.833h3.353V78.08L207.548,47.781z"/>
<path fill="#E95E21" d="M229.495,35.833h8.047c2.926,0,5.639,0.539,8.139,1.615c2.5,1.077,4.684,2.551,6.553,4.42
	c1.869,1.87,3.342,4.054,4.42,6.554c1.076,2.499,1.615,5.212,1.615,8.138c0,3.74-0.925,7.204-2.773,10.395
	c-1.85,3.19-4.37,5.71-7.56,7.56c-3.191,1.85-6.655,2.773-10.394,2.773h-5.06V39.186h-4.999L229.495,35.833z M237.542,73.935
	c3.17,0,6.086-0.771,8.748-2.317c2.662-1.544,4.765-3.657,6.31-6.34c1.544-2.682,2.317-5.587,2.317-8.718
	c0-2.356-0.468-4.622-1.402-6.797c-0.936-2.174-2.155-4.013-3.658-5.517c-1.504-1.504-3.343-2.723-5.517-3.658
	c-2.175-0.935-4.441-1.402-6.797-1.402h-1.707v34.749H237.542z"/>
<path fill="#E95E21" d="M268.937,58.815l-9.754-22.982h3.658l7.803,18.35l7.742-18.35h3.658l-9.754,22.982v18.472h-3.353V58.815z"/>
<g>
	<path fill="#452E15" d="M300.889,35.485c1.861,0.534,3.531,1.364,4.894,2.804c3.09,3.267,3.154,8.707,0.087,11.982
		c-0.625,0.667-0.625,0.667,0.113,1.227c7.189,5.45,8.085,15.617,1.877,22.146c-2.892,3.041-6.558,4.463-10.74,4.514
		c-2.839,0.035-5.68-0.029-8.518,0.029c-0.845,0.017-0.968-0.297-0.965-1.031c0.022-7.479,0.013-14.957,0.013-22.436
		c0-0.28-0.024-0.562,0.005-0.839c0.055-0.532-0.183-0.692-0.69-0.682c-1.598,0.033-3.197,0.033-4.796,0.045c0-0.08,0-0.16,0-0.24
		c0.625-1.012,1.343-1.98,1.848-3.048c0.514-1.087,1.19-1.512,2.407-1.41c1.476,0.124,1.219-0.019,1.225-1.2
		c0.018-3.954,0.028-7.908,0.041-11.862C292.089,35.485,296.489,35.485,300.889,35.485z M292.21,63.297
		c0,3.077-0.003,6.155,0.001,9.232c0.001,1.07,0.009,1.073,1.121,1.076c1.279,0.003,2.558,0.024,3.837-0.004
		c2.828-0.062,5.292-0.967,7.287-3.067c2.744-2.889,3.612-6.283,2.533-10.051c-1.076-3.755-3.698-6.172-7.499-6.951
		c-2.08-0.426-4.287-0.218-6.434-0.338c-0.691-0.039-0.867,0.205-0.86,0.871C292.228,57.142,292.21,60.22,292.21,63.297z
		 M292.211,44.333c0,1.197,0.011,2.394-0.006,3.59c-0.007,0.463,0.066,0.739,0.64,0.732c2.274-0.026,4.551,0.066,6.821-0.034
		c2.298-0.101,3.967-2.11,3.885-4.467c-0.08-2.32-1.822-4.076-4.122-4.105c-2.114-0.026-4.23,0.038-6.342-0.028
		c-0.803-0.025-0.921,0.276-0.89,0.96C292.246,42.097,292.21,43.216,292.211,44.333z"/>
	<path fill="#462F15" d="M389.449,35.485c0.037,0.433,0.105,0.866,0.106,1.299c0.006,8.275,0.005,16.55,0.005,25.044
		c0.282-0.366,0.479-0.58,0.63-0.823c1.68-2.712,3.376-5.415,5.011-8.154c0.376-0.63,0.773-0.899,1.509-0.861
		c1.157,0.059,2.319,0.007,3.479,0.018c0.922,0.009,0.939,0.031,0.459,0.812c-2.05,3.33-4.03,6.707-6.207,9.952
		c-0.879,1.311-0.832,2.169,0.089,3.416c2.657,3.596,5.163,7.303,7.724,10.97c0.199,0.285,0.368,0.591,0.625,1.008
		c-1.767,0-3.394,0.041-5.015-0.033c-0.338-0.015-0.745-0.395-0.97-0.712c-2.149-3.028-4.264-6.08-6.392-9.123
		c-0.224-0.32-0.467-0.627-0.94-0.901c0,0.419,0,0.837,0,1.256c0,2.839-0.026,5.679,0.017,8.518c0.012,0.784-0.202,1.072-1.006,1.01
		c-0.875-0.068-1.762-0.065-2.637-0.001c-0.772,0.057-1.017-0.254-0.916-0.964c0.017-0.118,0.002-0.24,0.002-0.36
		c0-13.398-0.001-26.795,0.005-40.193c0-0.393,0.069-0.786,0.106-1.179C386.569,35.485,388.009,35.485,389.449,35.485z"/>
	<path fill="#8E8072" d="M340.489,78.925c-0.019-0.065-0.032-0.132-0.039-0.199c1.145-0.001,2.29-0.002,3.435-0.003
		c-0.018,0.066-0.03,0.134-0.036,0.202C342.729,78.925,341.609,78.925,340.489,78.925z"/>
	<path fill="#88796A" d="M370.527,78.721c-0.014,0.068-0.026,0.135-0.038,0.203c-1.12,0-2.24,0-3.36,0
		c-0.012-0.068-0.025-0.135-0.039-0.203C368.236,78.722,369.382,78.722,370.527,78.721z"/>
	<path fill="#452E15" d="M370.527,78.721c-1.146,0-2.291,0-3.437,0c-5.173-0.408-10.285-4.729-11.583-10.022
		c-1.412-5.761,0.101-10.717,4.801-14.415c4.527-3.562,9.541-3.901,14.719-1.472c1.03,0.483,1.928,1.263,2.85,1.954
		c0.33,0.248,0.518,0.348,0.849,0.009c0.833-0.851,1.705-1.664,2.562-2.492c0.366-0.284,0.733-0.567,1.181-0.914
		c0,9.139,0,18.183,0,27.429c-1.179-1.071-2.257-2.045-3.329-3.025c-0.785-0.718-0.776-0.714-1.579-0.064
		C375.501,77.375,373.207,78.501,370.527,78.721z M377.968,65.08c0.227-4.754-4.032-9.269-9.18-9.21
		c-5.224,0.06-9.257,4.064-9.224,9.294c0.033,5.149,4.079,9.166,9.245,9.159C374.211,74.317,378.191,69.699,377.968,65.08z"/>
	<path fill="#452E15" d="M343.885,78.723c-1.145,0.001-2.29,0.002-3.435,0.003c-5.686-0.477-10.881-5.416-11.905-11.319
		c-1.166-6.723,2.907-13.401,9.43-15.461c5.552-1.754,11.814,0.274,15.281,4.948c0.849,1.144,0.846,1.142-0.204,2.067
		c-4.973,4.38-9.946,8.762-14.918,13.143c-0.12,0.106-0.23,0.226-0.363,0.312c-0.639,0.413-0.32,0.665,0.145,0.89
		c2.629,1.271,5.298,1.375,7.982,0.205c1.895-0.826,3.337-2.181,4.281-4.015c0.303-0.588,0.551-0.617,1.071-0.291
		c0.843,0.528,1.716,1.013,2.604,1.46c0.542,0.273,0.673,0.53,0.341,1.092C351.856,75.715,348.49,78.131,343.885,78.723z
		 M332.725,64.895c0.33,1.299,0.605,2.616,1.01,3.892c0.277,0.874,0.368,0.86,1.037,0.269c2.961-2.617,5.916-5.24,8.872-7.862
		c1.164-1.033,2.318-2.077,3.49-3.101c0.356-0.311,0.408-0.542-0.054-0.777c-0.213-0.108-0.405-0.255-0.616-0.366
		C340.566,53.826,333.109,57.725,332.725,64.895z"/>
	<path fill="#462F16" d="M313.498,64.774c0-4.117-0.002-8.234,0.005-12.35c0-0.269,0.071-0.538,0.109-0.807
		c0.237,0.121,0.477,0.237,0.709,0.367c0.103,0.058,0.189,0.147,0.283,0.222c0.686,0.548,1.332,1.455,2.07,1.538
		c0.667,0.075,1.419-0.781,2.163-1.172c2.676-1.409,5.451-1.648,8.335-0.694c0.657,0.218,0.807,0.481,0.435,1.107
		c-0.467,0.785-0.887,1.606-1.244,2.446c-0.269,0.633-0.567,0.773-1.268,0.603c-2.72-0.659-5.406,0.651-6.487,3.223
		c-0.374,0.89-0.534,1.929-0.544,2.902c-0.053,4.916-0.023,9.832-0.025,14.748c0,1.253-0.004,1.254-1.202,1.258
		c-0.759,0.002-1.519,0.005-2.278-0.001c-1.045-0.008-1.056-0.011-1.058-1.04c-0.006-3.078-0.002-6.155-0.002-9.233
		C313.498,66.853,313.498,65.814,313.498,64.774z"/>
</g>
</svg>
